<svg width="58" height="59" viewBox="0 0 58 59" fill="none" xmlns="http://www.w3.org/2000/svg">
<circle cx="29" cy="29.5" r="29" fill="#ED2C3A" fill-opacity="0.1"/>
<circle cx="29" cy="29.5" r="18" fill="#F86970"/>
<path d="M24.2255 34.6247C23.9248 34.324 23.9248 33.8254 24.2255 33.5248L33.0248 24.7255C33.3254 24.4248 33.824 24.4248 34.1247 24.7255C34.4253 25.0261 34.4253 25.5247 34.1247 25.8254L25.3254 34.6247C25.0247 34.9253 24.5261 34.9253 24.2255 34.6247Z" fill="white"/>
<path d="M33.0257 34.6247L24.2264 25.8254C23.9258 25.5247 23.9258 25.0261 24.2264 24.7255C24.5271 24.4248 25.0257 24.4248 25.3263 24.7255L34.1256 33.5248C34.4263 33.8254 34.4263 34.324 34.1256 34.6247C33.825 34.9253 33.3263 34.9253 33.0257 34.6247Z" fill="white"/>
</svg>
