<svg width="140" height="33" viewBox="0 0 140 33" fill="none" xmlns="http://www.w3.org/2000/svg">
<path d="M127.595 23.0223C126.781 23.0223 126.096 22.3646 126.096 21.5608C126.096 20.7387 126.762 20.0811 127.576 20.0811C130.704 20.0628 133.461 18.4003 134.96 15.6235C136.459 12.8649 136.329 9.64963 134.608 7.05548C133.035 4.5892 130.297 3.16425 127.262 3.23732C124.227 3.3104 121.562 4.84497 120.101 7.34778C119.693 8.06026 118.768 8.29775 118.065 7.89584C117.343 7.49393 117.103 6.58049 117.51 5.88628C119.49 2.47004 123.117 0.387406 127.206 0.296062C131.296 0.204719 134.997 2.1412 137.143 5.44783C139.475 8.97369 139.641 13.3034 137.624 17.0302C135.626 20.7205 131.777 23.0223 127.613 23.0589L127.595 23.0223Z" fill="url(#paint0_radial_20144_63817)"/>
<path d="M127.593 23.0217C126.778 23.0217 126.094 22.3641 126.094 21.5603C126.094 20.7382 126.76 20.0805 127.574 20.0805C130.701 20.0622 133.459 18.3998 134.957 15.6229C136.456 12.8644 136.327 9.64906 134.606 7.05491C135.846 6.39724 136.197 6.05013 137.122 5.44727C139.454 8.97312 139.621 13.3028 137.604 17.0296C135.605 20.7199 131.756 23.0217 127.593 23.0583V23.0217Z" fill="url(#paint1_linear_20144_63817)"/>
<path d="M117.396 15.7691C117.803 15.0749 118.71 14.8192 119.431 15.2211C120.153 15.623 120.394 16.5181 119.987 17.2306C118.451 19.9161 118.525 23.0949 120.209 25.7804C121.874 28.4476 124.761 29.9456 127.907 29.763H127.925C130.849 29.6351 133.476 28.0092 134.938 25.3785C136.4 22.7478 136.382 19.6969 134.92 17.1941C134.513 16.4816 134.753 15.5864 135.456 15.1663C136.178 14.7644 137.085 15.0018 137.51 15.6961C139.509 19.094 139.527 23.241 137.566 26.7852C135.604 30.311 132.052 32.5398 128.073 32.7042C123.817 32.9417 119.931 30.9139 117.674 27.3149C115.434 23.7526 115.342 19.3315 117.396 15.7509V15.7691Z" fill="url(#paint2_radial_20144_63817)"/>
<path d="M117.399 15.7684C117.806 15.0741 118.713 14.8184 119.434 15.2203C120.156 15.6222 120.397 16.5174 119.989 17.2298C118.454 19.9153 118.528 23.0941 120.212 25.7796C121.877 28.4468 124.764 29.9449 127.909 29.7622H127.928C127.854 31.1506 128.002 31.6256 128.057 32.7217C123.801 32.9592 119.915 30.9314 117.658 27.3324C115.419 23.77 115.326 19.349 117.38 15.7684H117.399Z" fill="url(#paint3_linear_20144_63817)"/>
<path d="M128.726 10.6549C129.133 11.3491 128.893 12.2625 128.19 12.6644C127.468 13.0846 126.561 12.8471 126.136 12.1346C124.563 9.48567 121.713 7.9511 118.53 8.04244C115.348 8.13378 112.609 9.85104 111.184 12.6279C109.833 15.222 109.944 18.2729 111.536 20.8305C113.109 23.3881 115.792 24.9044 118.734 24.9044C119.567 24.9044 120.233 25.5621 120.233 26.3842C120.233 27.2063 119.567 27.864 118.734 27.864C114.755 27.864 111.11 25.8179 108.982 22.3651C106.873 18.9123 106.687 14.7836 108.538 11.2943C110.462 7.54918 114.163 5.22906 118.456 5.10118C122.694 4.9733 126.635 7.09247 128.745 10.6549H128.726Z" fill="url(#paint4_radial_20144_63817)"/>
<path d="M128.723 10.6549C129.13 11.3491 128.889 12.2625 128.186 12.6644C127.464 13.0846 126.558 12.8471 126.132 12.1346C124.559 9.48567 121.709 7.9511 118.527 8.04244C115.344 8.13378 112.605 9.85104 111.18 12.6279C109.996 11.8971 109.515 11.7875 108.516 11.2943C110.44 7.54918 114.141 5.22906 118.434 5.10118C122.672 4.9733 126.613 7.09247 128.723 10.6549Z" fill="url(#paint5_linear_20144_63817)"/>
<path d="M87.2003 16.5004H86.6266V15.3861H87.2003C90.1425 15.3861 92.5666 13.1755 92.8441 10.3439H80.3906V9.77757C80.3906 6.06902 83.4439 3.05469 87.2003 3.05469C90.9567 3.05469 94.0099 6.06902 94.0099 9.77757C94.0099 13.4861 90.9567 16.5004 87.2003 16.5004ZM81.5564 9.22951H92.8441C92.5666 6.39786 90.1425 4.18735 87.2003 4.18735C84.2581 4.18735 81.834 6.39786 81.5564 9.22951Z" fill="white"/>
<path d="M63.8487 16.5004H63.2751V15.3861H63.8487C66.7909 15.3861 69.215 13.1755 69.4926 10.3439H57.0391V9.77757C57.0391 6.06902 60.0923 3.05469 63.8487 3.05469C67.6051 3.05469 70.6584 6.06902 70.6584 9.77757C70.6584 13.4861 67.6051 16.5004 63.8487 16.5004ZM58.2048 9.22951H69.4926C69.215 6.39786 66.7909 4.18735 63.8487 4.18735C60.9065 4.18735 58.4824 6.39786 58.2048 9.22951Z" fill="white"/>
<path d="M71.2821 16.5C71.2266 16.5 71.1526 16.5 71.0971 16.5H70.5234L70.5604 15.3674H71.1341C73.1511 15.4405 75.0755 14.4174 76.1303 12.7184C76.7224 11.7685 77.0185 10.6906 76.963 9.57621V9.00988L78.0733 8.95508V9.52141C78.1473 10.855 77.8142 12.1521 77.0925 13.2848C75.8527 15.276 73.6507 16.4818 71.3006 16.4818L71.2821 16.5Z" fill="white"/>
<path d="M47.7489 16.5016C45.9355 16.5016 44.2145 15.8074 42.9377 14.5286C40.2916 11.9162 40.2916 7.64129 42.9377 5.02886L43.3448 4.62695L44.1405 5.41251L43.7334 5.81442C41.5129 8.00666 41.5129 11.5508 43.7334 13.743C44.8067 14.8026 46.2315 15.3872 47.7489 15.3872C49.2663 15.3872 50.6911 14.8026 51.7644 13.743C53.9849 11.5508 53.9849 8.00666 51.7644 5.81442L51.3573 5.41251L52.153 4.62695L52.5601 5.02886C55.2062 7.64129 55.2062 11.9162 52.5601 14.5286C51.2833 15.7891 49.5623 16.5016 47.7489 16.5016Z" fill="white"/>
<path d="M97.3944 0.259766H96.2656V16.5006H97.3944V0.259766Z" fill="white"/>
<g opacity="0.2">
<path d="M47.7472 16.5004C43.9907 16.5004 40.9375 13.4861 40.9375 9.77757C40.9375 6.06902 43.9907 3.05469 47.7472 3.05469C51.5036 3.05469 54.5568 6.06902 54.5568 9.77757C54.5568 13.4861 51.5036 16.5004 47.7472 16.5004ZM47.7472 4.18735C44.6199 4.18735 42.0663 6.70842 42.0663 9.79583C42.0663 12.8832 44.6199 15.4043 47.7472 15.4043C50.8744 15.4043 53.428 12.8832 53.428 9.79583C53.428 6.70842 50.8744 4.18735 47.7472 4.18735Z" fill="white"/>
</g>
<g opacity="0.2">
<path d="M63.8487 16.5004C60.0923 16.5004 57.0391 13.4861 57.0391 9.77757C57.0391 6.06902 60.0923 3.05469 63.8487 3.05469C67.6051 3.05469 70.6584 6.06902 70.6584 9.77757C70.6584 13.4861 67.6051 16.5004 63.8487 16.5004ZM63.8487 4.18735C60.7215 4.18735 58.1678 6.70842 58.1678 9.79583C58.1678 12.8832 60.7215 15.4043 63.8487 15.4043C66.976 15.4043 69.5296 12.8832 69.5296 9.79583C69.5296 6.70842 66.976 4.18735 63.8487 4.18735Z" fill="white"/>
</g>
<g opacity="0.2">
<path d="M87.2003 16.5004C83.4439 16.5004 80.3906 13.4861 80.3906 9.77757C80.3906 6.06902 83.4439 3.05469 87.2003 3.05469C90.9567 3.05469 94.0099 6.06902 94.0099 9.77757C94.0099 13.4861 90.9567 16.5004 87.2003 16.5004ZM87.2003 4.18735C84.073 4.18735 81.5194 6.70842 81.5194 9.79583C81.5194 12.8832 84.073 15.4043 87.2003 15.4043C90.3275 15.4043 92.8812 12.8832 92.8812 9.79583C92.8812 6.70842 90.3275 4.18735 87.2003 4.18735Z" fill="white"/>
</g>
<path d="M47.7468 10.6188C48.2067 10.6188 48.5795 10.2507 48.5795 9.7967C48.5795 9.34267 48.2067 8.97461 47.7468 8.97461C47.2869 8.97461 46.9141 9.34267 46.9141 9.7967C46.9141 10.2507 47.2869 10.6188 47.7468 10.6188Z" fill="white"/>
<path d="M77.5202 7.16567C77.9801 7.16567 78.3529 6.7976 78.3529 6.34358C78.3529 5.88955 77.9801 5.52148 77.5202 5.52148C77.0603 5.52148 76.6875 5.88955 76.6875 6.34358C76.6875 6.7976 77.0603 7.16567 77.5202 7.16567Z" fill="white"/>
<g opacity="0.2">
<path d="M7.70439 16.5008C3.98498 16.5008 0.96875 13.523 0.96875 9.85098C0.96875 6.17897 3.98498 3.20117 7.70439 3.20117C11.4238 3.20117 14.44 6.17897 14.44 9.85098C14.44 13.523 11.4238 16.5008 7.70439 16.5008ZM7.70439 4.31556C4.61414 4.31556 2.09752 6.8001 2.09752 9.85098C2.09752 12.9018 4.61414 15.3864 7.70439 15.3864C10.7946 15.3864 13.3112 12.9018 13.3112 9.85098C13.3112 6.8001 10.7946 4.31556 7.70439 4.31556Z" fill="white"/>
</g>
<g opacity="0.2">
<path d="M28.6341 16.5008C24.9147 16.5008 21.8984 13.523 21.8984 9.85098C21.8984 6.17897 24.9147 3.20117 28.6341 3.20117C32.3535 3.20117 35.3697 6.17897 35.3697 9.85098C35.3697 13.523 32.3535 16.5008 28.6341 16.5008ZM28.6341 4.31556C25.5438 4.31556 23.0272 6.8001 23.0272 9.85098C23.0272 12.9018 25.5438 15.3864 28.6341 15.3864C31.7243 15.3864 34.2409 12.9018 34.2409 9.85098C34.2409 6.8001 31.7243 4.31556 28.6341 4.31556Z" fill="white"/>
</g>
<path d="M28.6341 16.5006C24.9147 16.5006 21.8984 13.5228 21.8984 9.8508V9.30273H35.3512V9.8508C35.3512 13.5228 32.335 16.5006 28.6156 16.5006H28.6341ZM23.0457 10.4171C23.3233 13.2122 25.7289 15.4045 28.6341 15.4045C31.5393 15.4045 33.9449 13.2122 34.2224 10.4171H23.0457Z" fill="white"/>
<path d="M7.70438 16.5006C3.98498 16.5006 0.96875 13.5228 0.96875 9.8508V9.30273H2.07902V9.8508C2.07902 12.9017 4.59563 15.3862 7.68588 15.3862C10.7761 15.3862 13.2927 12.9017 13.2927 9.8508V9.30273H14.403V9.8508C14.403 13.5228 11.3868 16.5006 7.66737 16.5006H7.70438Z" fill="white"/>
<path d="M13.498 16.5011C13.4425 16.5011 13.3685 16.5011 13.3129 16.5011H12.7578L12.7948 15.3867H13.35C15.3484 15.4598 17.2359 14.455 18.2907 12.7743C18.8828 11.8426 19.1604 10.7647 19.1234 9.66858V9.12052L20.2151 9.08398V9.63205C20.2891 10.9474 19.9561 12.2262 19.2529 13.3589C18.0316 15.3136 15.8481 16.5193 13.5165 16.5193L13.498 16.5011Z" fill="white"/>
<path d="M23.0243 0.333984H21.9141V10.4183H23.0243V0.333984Z" fill="white"/>
<path d="M6.78295 10.4533C7.23262 10.4533 7.59715 10.0935 7.59715 9.64952C7.59715 9.20559 7.23262 8.8457 6.78295 8.8457C6.33328 8.8457 5.96875 9.20559 5.96875 9.64952C5.96875 10.0935 6.33328 10.4533 6.78295 10.4533Z" fill="white"/>
<path d="M8.6267 10.4533C9.07637 10.4533 9.4409 10.0935 9.4409 9.64952C9.4409 9.20559 9.07637 8.8457 8.6267 8.8457C8.17703 8.8457 7.8125 9.20559 7.8125 9.64952C7.8125 10.0935 8.17703 10.4533 8.6267 10.4533Z" fill="white"/>
<path d="M34.4663 0.283584L22.125 9.43164L22.7916 10.3082L35.133 1.16014L34.4663 0.283584Z" fill="white"/>
<path d="M60.5862 32.7416C59.6424 32.7416 58.7727 32.3762 58.1066 31.7185C57.4404 31.0608 57.0703 30.1839 57.0703 29.2705C57.0703 28.3571 57.4404 27.4802 58.1066 26.8225C59.4759 25.4706 61.6964 25.4706 63.0658 26.8225L63.2878 27.0417L58.7727 31.4993C59.2908 31.9012 59.92 32.1204 60.5862 32.1204C61.2523 32.1204 62.085 31.8281 62.6217 31.2801L62.8437 31.0608L63.2878 31.4993L63.0658 31.7185C62.3996 32.3762 61.5114 32.7416 60.5862 32.7416ZM60.5862 26.4206C59.846 26.4206 59.1058 26.6946 58.5507 27.261C58.014 27.7907 57.6995 28.5215 57.6995 29.2705C57.6995 30.0195 57.9215 30.5493 58.3286 31.0608L62.3811 27.06C61.863 26.6398 61.2153 26.4389 60.5677 26.4389L60.5862 26.4206Z" fill="white"/>
<path d="M44.969 32.7409C43.026 32.7409 41.4531 31.1881 41.4531 29.2699C41.4531 27.3517 43.026 25.7988 44.969 25.7988C46.912 25.7988 48.4848 27.3517 48.4848 29.2699C48.4848 31.1881 46.912 32.7409 44.969 32.7409ZM44.969 26.42C43.3776 26.42 42.0823 27.6988 42.0823 29.2699C42.0823 30.841 43.3776 32.1198 44.969 32.1198C46.5604 32.1198 47.8557 30.841 47.8557 29.2699C47.8557 27.6988 46.5604 26.42 44.969 26.42Z" fill="white"/>
<path d="M29.4251 32.7418C26.7049 32.7418 24.4844 30.5496 24.4844 27.8641C24.4844 25.1786 26.7049 22.9863 29.4251 22.9863C32.1452 22.9863 34.3658 25.1786 34.3658 27.8641C34.3658 30.5496 32.1452 32.7418 29.4251 32.7418ZM29.4251 23.6075C27.0565 23.6075 25.1135 25.5257 25.1135 27.8641C25.1135 30.2025 27.0565 32.1207 29.4251 32.1207C31.7936 32.1207 33.7366 30.2025 33.7366 27.8641C33.7366 25.5257 31.7936 23.6075 29.4251 23.6075Z" fill="white"/>
<path d="M41.4001 32.7409H34.8125L40.4009 26.42H35.1826V25.7988H41.7702L36.1818 32.1198H41.4001V32.7409Z" fill="white"/>
<path d="M56.2973 32.7409H55.6682V29.2699C55.6682 27.6988 54.3729 26.42 52.7815 26.42C51.1901 26.42 49.8948 27.6988 49.8948 29.2699V32.7409H49.2656V29.2699C49.2656 27.3517 50.8385 25.7988 52.7815 25.7988C54.7245 25.7988 56.2973 27.3517 56.2973 29.2699V32.7409Z" fill="white"/>
<g opacity="0.2">
<path d="M60.5862 32.7409C58.6432 32.7409 57.0703 31.1881 57.0703 29.2699C57.0703 27.3517 58.6432 25.7988 60.5862 25.7988C62.5291 25.7988 64.102 27.3517 64.102 29.2699C64.102 31.1881 62.5291 32.7409 60.5862 32.7409ZM60.5862 26.42C58.9948 26.42 57.6995 27.6988 57.6995 29.2699C57.6995 30.841 58.9948 32.1198 60.5862 32.1198C62.1776 32.1198 63.4729 30.841 63.4729 29.2699C63.4729 27.6988 62.1776 26.42 60.5862 26.42Z" fill="white"/>
</g>
<g opacity="0.2">
<path d="M72.9876 32.7418C70.2674 32.7418 68.0469 30.5496 68.0469 27.8641C68.0469 25.1786 70.2674 22.9863 72.9876 22.9863C75.7077 22.9863 77.9283 25.1786 77.9283 27.8641C77.9283 30.5496 75.7077 32.7418 72.9876 32.7418ZM72.9876 23.6075C70.619 23.6075 68.676 25.5074 68.676 27.8641C68.676 30.2207 70.6005 32.1207 72.9876 32.1207C75.3747 32.1207 77.2991 30.2207 77.2991 27.8641C77.2991 25.5074 75.3747 23.6075 72.9876 23.6075Z" fill="white"/>
</g>
<path d="M72.9876 32.7418C70.2674 32.7418 68.0469 30.5496 68.0469 27.8641C68.0469 25.1786 70.2674 22.9863 72.9876 22.9863C75.7077 22.9863 75.6707 23.5527 76.596 24.5392L76.818 24.7584L76.3554 25.1786L76.1333 24.9593C75.3191 24.1007 74.1719 23.6075 72.9876 23.6075C70.619 23.6075 68.676 25.5257 68.676 27.8641C68.676 30.2025 70.619 32.1207 72.9876 32.1207C75.3562 32.1207 75.3191 31.6274 76.1333 30.7688L76.3554 30.5496L76.818 30.9697L76.596 31.189C75.6707 32.1755 74.3569 32.7418 72.9876 32.7418Z" fill="white"/>
<path d="M93.8987 32.7409C91.9557 32.7409 90.3828 31.1881 90.3828 29.2699C90.3828 27.3517 91.9557 25.7988 93.8987 25.7988C95.8416 25.7988 97.4145 27.3517 97.4145 29.2699C97.4145 31.1881 95.8416 32.7409 93.8987 32.7409ZM93.8987 26.42C92.3073 26.42 91.012 27.6988 91.012 29.2699C91.012 30.841 92.3073 32.1198 93.8987 32.1198C95.4901 32.1198 96.7854 30.841 96.7854 29.2699C96.7854 27.6988 95.4901 26.42 93.8987 26.42Z" fill="white"/>
<path d="M97.4182 22.9863H96.7891V32.7418H97.4182V22.9863Z" fill="white"/>
<path d="M82.3674 32.7409C80.4244 32.7409 78.8516 31.1881 78.8516 29.2699C78.8516 27.3517 80.4244 25.7988 82.3674 25.7988C84.3104 25.7988 85.8833 27.3517 85.8833 29.2699C85.8833 31.1881 84.3104 32.7409 82.3674 32.7409ZM82.3674 26.42C80.776 26.42 79.4807 27.6988 79.4807 29.2699C79.4807 30.841 80.776 32.1198 82.3674 32.1198C83.9588 32.1198 85.2541 30.841 85.2541 29.2699C85.2541 27.6988 83.9588 26.42 82.3674 26.42Z" fill="white"/>
<path d="M85.887 25.7988H85.2578V32.7409H85.887V25.7988Z" fill="white"/>
<path d="M88.1995 25.7988H87.5703V32.7409H88.1995V25.7988Z" fill="white"/>
<path d="M88.1995 28.941H87.5703V28.5939C87.5703 27.0594 88.8471 25.7988 90.4015 25.7988H90.7161V26.42H90.4015C89.1802 26.42 88.1995 27.3882 88.1995 28.5939V28.941Z" fill="white"/>
<defs>
<radialGradient id="paint0_radial_20144_63817" cx="0" cy="0" r="1" gradientUnits="userSpaceOnUse" gradientTransform="translate(118.99 6.58049) scale(22.446 22.1599)">
<stop stop-color="#24C8B0" stop-opacity="0"/>
<stop offset="1" stop-color="#24C8B0"/>
</radialGradient>
<linearGradient id="paint1_linear_20144_63817" x1="135.087" y1="5.20977" x2="131.53" y2="22.3824" gradientUnits="userSpaceOnUse">
<stop offset="0.1" stop-color="#24C8B0" stop-opacity="0"/>
<stop offset="1" stop-color="#24C8B0"/>
</linearGradient>
<radialGradient id="paint2_radial_20144_63817" cx="0" cy="0" r="1" gradientUnits="userSpaceOnUse" gradientTransform="translate(136.119 16.6341) rotate(120.319) scale(22.2318 22.3734)">
<stop stop-color="#24C8B0" stop-opacity="0"/>
<stop offset="1" stop-color="#24C8B0"/>
</radialGradient>
<linearGradient id="paint3_linear_20144_63817" x1="129.3" y1="31.0761" x2="116.21" y2="19.2062" gradientUnits="userSpaceOnUse">
<stop offset="0.1" stop-color="#24C8B0" stop-opacity="0"/>
<stop offset="1" stop-color="#24C8B0"/>
</linearGradient>
<radialGradient id="paint4_radial_20144_63817" cx="0" cy="0" r="1" gradientUnits="userSpaceOnUse" gradientTransform="translate(118.602 26.2468) rotate(-120.319) scale(22.2318 22.3734)">
<stop stop-color="#24C8B0" stop-opacity="0"/>
<stop offset="1" stop-color="#24C8B0"/>
</radialGradient>
<linearGradient id="paint5_linear_20144_63817" x1="109.34" y1="13.1924" x2="126.184" y2="7.5949" gradientUnits="userSpaceOnUse">
<stop offset="0.1" stop-color="#24C8B0" stop-opacity="0"/>
<stop offset="1" stop-color="#24C8B0"/>
</linearGradient>
</defs>
</svg>
