<svg width="168" height="126" viewBox="0 0 168 126" fill="none" xmlns="http://www.w3.org/2000/svg">
<path d="M88.9042 43.0081C87.993 43.0081 87.2589 42.2779 87.2589 41.3966C87.2589 40.4901 87.993 39.7599 88.8789 39.7599C92.2961 39.7599 95.3083 37.8966 96.9789 34.8247C98.6243 31.7779 98.4724 28.2275 96.5993 25.357C94.878 22.6376 91.8658 21.0765 88.5498 21.152C85.2339 21.2275 82.2976 22.9146 80.7029 25.6844C80.2473 26.4649 79.2601 26.7419 78.4754 26.2887C77.6907 25.8354 77.4123 24.8534 77.8679 24.0729C80.0448 20.2959 84.0189 18.0045 88.4739 17.9038C92.9542 17.8031 97.0043 19.9434 99.3583 23.5944C101.915 27.4721 102.092 32.2563 99.8899 36.3606C97.6877 40.4398 93.4858 42.9829 88.9295 43.0081H88.9042Z" fill="url(#paint0_radial_14955_88600)"/>
<path d="M88.9031 43.0072C87.9919 43.0072 87.2578 42.277 87.2578 41.3957C87.2578 40.4892 87.9919 39.759 88.8778 39.759C92.295 39.759 95.3072 37.8957 96.9779 34.8238C98.6232 31.777 98.4713 28.2266 96.5982 25.3561C97.9651 24.6259 98.3447 24.2482 99.3573 23.5684C101.914 27.4461 102.091 32.2302 99.8888 36.3345C97.6866 40.4137 93.4847 42.9568 88.9284 42.982L88.9031 43.0072Z" fill="url(#paint1_linear_14955_88600)"/>
<path d="M77.7379 35.0008C78.1935 34.2202 79.1807 33.9433 79.9654 34.3965C80.7501 34.8497 81.0285 35.8318 80.5729 36.6123C78.877 39.5584 78.9782 43.0836 80.8007 46.0548C82.6232 49.0008 85.7873 50.6375 89.2298 50.4613C92.4445 50.3354 95.3049 48.5224 96.8995 45.6267C98.4942 42.731 98.4943 39.3569 96.8742 36.5872C96.4186 35.8066 96.6971 34.7994 97.4564 34.3461C98.2411 33.8929 99.2536 34.1699 99.7093 34.9253C101.911 38.6771 101.937 43.2598 99.7852 47.1627C97.6336 51.0656 93.7608 53.508 89.3817 53.6843C84.7242 53.9361 80.4717 51.7203 77.991 47.7418C75.5357 43.8138 75.4344 38.9289 77.6873 34.9756L77.7379 35.0008Z" fill="url(#paint2_radial_14955_88600)"/>
<path d="M77.7379 35.0004C78.1935 34.2198 79.1807 33.9428 79.9654 34.396C80.7501 34.8493 81.0285 35.8313 80.5729 36.6119C78.877 39.5579 78.9782 43.0831 80.8007 46.0543C82.6232 49.0004 85.7873 50.637 89.2298 50.4608C89.1539 51.9968 89.3058 52.5004 89.3817 53.709C84.7242 53.9608 80.4717 51.745 77.991 47.7665C75.5357 43.8385 75.4344 38.9536 77.6873 35.0004H77.7379Z" fill="url(#paint3_linear_14955_88600)"/>
<path d="M90.1185 29.36C90.5741 30.1405 90.2957 31.1226 89.5363 31.5758C88.7516 32.029 87.7391 31.7772 87.2835 30.9967C85.5622 28.0758 82.4488 26.3887 78.9556 26.4895C75.4878 26.5902 72.4756 28.4787 70.9062 31.5506C69.4128 34.3959 69.5647 37.77 71.2859 40.5902C73.0072 43.4103 75.9434 45.0974 79.1581 45.0722C80.0694 45.0722 80.8035 45.8024 80.8035 46.7089C80.8035 47.6154 80.0694 48.3456 79.1581 48.3456C74.8044 48.3456 70.805 46.1046 68.4762 42.2772C66.1474 38.4751 65.9703 33.9175 67.9953 30.065C70.0962 25.9355 74.1716 23.3672 78.8544 23.2413C83.4866 23.0902 87.8151 25.4319 90.1185 29.36Z" fill="url(#paint4_radial_14955_88600)"/>
<path d="M90.1154 29.36C90.5711 30.1405 90.2926 31.1226 89.5332 31.5758C88.7486 32.029 87.736 31.7772 87.2804 30.9967C85.5592 28.0758 82.4457 26.3887 78.9526 26.4895C75.4847 26.5902 72.4725 28.4787 70.9031 31.5506C69.6122 30.7449 69.0806 30.619 67.9922 30.065C70.0931 25.9355 74.1685 23.3672 78.8513 23.2413C83.4835 23.0902 87.812 25.4319 90.1154 29.36Z" fill="url(#paint5_linear_14955_88600)"/>
<path d="M136.01 85.7375H135.226V84.2015H136.01C140.035 84.2015 143.351 81.1547 143.731 77.2518H126.695V76.4713C126.695 71.3598 130.872 67.2051 136.01 67.2051C141.149 67.2051 145.325 71.3598 145.325 76.4713C145.325 81.5828 141.149 85.7375 136.01 85.7375ZM128.29 75.7159H143.731C143.351 71.813 140.035 68.7662 136.01 68.7662C131.986 68.7662 128.67 71.813 128.29 75.7159Z" fill="white"/>
<path d="M104.065 85.7375H103.28V84.2015H104.065C108.09 84.2015 111.406 81.1547 111.785 77.2518H94.75V76.4713C94.75 71.3598 98.9266 67.2051 104.065 67.2051C109.204 67.2051 113.38 71.3598 113.38 76.4713C113.38 81.5828 109.204 85.7375 104.065 85.7375ZM96.3447 75.7159H111.785C111.406 71.813 108.09 68.7662 104.065 68.7662C100.04 68.7662 96.7244 71.813 96.3447 75.7159Z" fill="white"/>
<path d="M114.241 85.7393C114.165 85.7393 114.064 85.7393 113.988 85.7393H113.203L113.254 84.1782H114.038C116.798 84.2789 119.43 82.8688 120.873 80.5271C121.683 79.2178 122.088 77.7321 122.012 76.2214V75.4408L123.531 75.3652V76.1458C123.632 77.9839 123.176 79.7717 122.189 81.3329C120.493 84.0775 117.481 85.7393 114.266 85.7393H114.241Z" fill="white"/>
<path d="M82.0383 85.738C79.6589 85.738 77.2795 84.8315 75.457 83.0186C71.8373 79.4179 71.8373 73.5258 75.457 69.9251L76.0138 69.3711L77.1023 70.4538L76.5454 71.0078C73.5079 74.0294 73.5079 78.9143 76.5454 81.9358C79.5829 84.9574 84.4936 84.9574 87.5311 81.9358C90.5686 78.9143 90.5686 74.0294 87.5311 71.0078L86.9742 70.4538L88.0627 69.3711L88.6195 69.9251C92.2392 73.5258 92.2392 79.4179 88.6195 83.0186C86.797 84.8315 84.4176 85.738 82.0383 85.738Z" fill="white"/>
<path d="M149.958 63.3535H148.414V85.7384H149.958V63.3535Z" fill="white"/>
<g opacity="0.2">
<path d="M82.0416 85.7375C76.9032 85.7375 72.7266 81.5828 72.7266 76.4713C72.7266 71.3598 76.9032 67.2051 82.0416 67.2051C87.1801 67.2051 91.3567 71.3598 91.3567 76.4713C91.3567 81.5828 87.1801 85.7375 82.0416 85.7375ZM82.0416 68.7662C77.7638 68.7662 74.2706 72.241 74.2706 76.4964C74.2706 80.7518 77.7638 84.2267 82.0416 84.2267C86.3195 84.2267 89.8126 80.7518 89.8126 76.4964C89.8126 72.241 86.3195 68.7662 82.0416 68.7662Z" fill="white"/>
</g>
<g opacity="0.2">
<path d="M104.065 85.7375C98.9266 85.7375 94.75 81.5828 94.75 76.4713C94.75 71.3598 98.9266 67.2051 104.065 67.2051C109.204 67.2051 113.38 71.3598 113.38 76.4713C113.38 81.5828 109.204 85.7375 104.065 85.7375ZM104.065 68.7662C99.7872 68.7662 96.2941 72.241 96.2941 76.4964C96.2941 80.7518 99.7872 84.2267 104.065 84.2267C108.343 84.2267 111.836 80.7518 111.836 76.4964C111.836 72.241 108.343 68.7662 104.065 68.7662Z" fill="white"/>
</g>
<g opacity="0.2">
<path d="M136.01 85.7375C130.872 85.7375 126.695 81.5828 126.695 76.4713C126.695 71.3598 130.872 67.2051 136.01 67.2051C141.149 67.2051 145.325 71.3598 145.325 76.4713C145.325 81.5828 141.149 85.7375 136.01 85.7375ZM136.01 68.7662C131.733 68.7662 128.239 72.241 128.239 76.4964C128.239 80.7518 131.733 84.2267 136.01 84.2267C140.288 84.2267 143.781 80.7518 143.781 76.4964C143.781 72.241 140.288 68.7662 136.01 68.7662Z" fill="white"/>
</g>
<path d="M82.0453 77.6041C82.6744 77.6041 83.1844 77.0968 83.1844 76.471C83.1844 75.8452 82.6744 75.3379 82.0453 75.3379C81.4162 75.3379 80.9062 75.8452 80.9062 76.471C80.9062 77.0968 81.4162 77.6041 82.0453 77.6041Z" fill="white"/>
<path d="M82.0428 77.8062C81.3088 77.8062 80.7266 77.2271 80.7266 76.4968C80.7266 75.7666 81.3088 75.1875 82.0428 75.1875C82.7769 75.1875 83.3591 75.7666 83.3591 76.4968C83.3591 77.2271 82.7769 77.8062 82.0428 77.8062ZM82.0428 75.5652C81.5366 75.5652 81.1063 75.9933 81.1063 76.4968C81.1063 77.0004 81.5366 77.4285 82.0428 77.4285C82.5491 77.4285 82.9794 77.0004 82.9794 76.4968C82.9794 75.9933 82.5491 75.5652 82.0428 75.5652Z" fill="white"/>
<path d="M122.772 72.8717C123.401 72.8717 123.911 72.3644 123.911 71.7386C123.911 71.1128 123.401 70.6055 122.772 70.6055C122.143 70.6055 121.633 71.1128 121.633 71.7386C121.633 72.3644 122.143 72.8717 122.772 72.8717Z" fill="white"/>
<path d="M122.769 73.0738C122.035 73.0738 121.453 72.4946 121.453 71.7644C121.453 71.0342 122.035 70.4551 122.769 70.4551C123.503 70.4551 124.086 71.0342 124.086 71.7644C124.086 72.4946 123.503 73.0738 122.769 73.0738ZM122.769 70.8328C122.263 70.8328 121.833 71.2608 121.833 71.7644C121.833 72.268 122.263 72.6961 122.769 72.6961C123.276 72.6961 123.706 72.268 123.706 71.7644C123.706 71.2608 123.276 70.8328 122.769 70.8328Z" fill="white"/>
<path d="M136.034 85.7375H135.249V84.2015H136.034C140.059 84.2015 143.374 81.1547 143.754 77.2518H126.719V76.4713C126.719 71.3598 130.895 67.2051 136.034 67.2051C141.172 67.2051 145.349 71.3598 145.349 76.4713C145.349 81.5828 141.172 85.7375 136.034 85.7375ZM128.313 75.7159H143.779C143.4 71.813 140.084 68.7662 136.059 68.7662C132.034 68.7662 128.718 71.813 128.339 75.7159H128.313Z" fill="white"/>
<path d="M104.088 85.7375H103.304V84.2015H104.088C108.113 84.2015 111.429 81.1547 111.809 77.2518H94.7734V76.4713C94.7734 71.3598 98.95 67.2051 104.088 67.2051C109.227 67.2051 113.404 71.3598 113.404 76.4713C113.404 81.5828 109.227 85.7375 104.088 85.7375ZM96.3681 75.7159H111.834C111.454 71.813 108.139 68.7662 104.114 68.7662C100.089 68.7662 96.7731 71.813 96.3934 75.7159H96.3681Z" fill="white"/>
<path d="M114.264 85.7391C114.188 85.7391 114.087 85.7391 114.011 85.7391H113.227L113.277 84.178H114.062C116.821 84.2787 119.453 82.8686 120.896 80.5269C121.706 79.2175 122.111 77.7319 122.035 76.196V75.4154L123.554 75.3398V76.1204C123.655 77.9585 123.2 79.7463 122.213 81.3075C120.517 84.0521 117.504 85.7139 114.264 85.7139V85.7391Z" fill="white"/>
<path d="M82.0617 85.738C79.5811 85.738 77.227 84.7812 75.4804 83.0186C71.8607 79.4179 71.8607 73.5258 75.4804 69.9251L76.0373 69.3711L77.1257 70.4538L76.5688 71.0078C73.5313 74.0294 73.5313 78.9143 76.5688 81.9358C78.037 83.3963 79.9861 84.202 82.0617 84.202C84.1373 84.202 86.0864 83.3963 87.5545 81.9358C90.592 78.9143 90.592 74.0294 87.5545 71.0078L86.9977 70.4538L88.0861 69.3711L88.643 69.9251C92.2627 73.5258 92.2627 79.4179 88.643 83.0186C86.8964 84.756 84.5423 85.738 82.0617 85.738Z" fill="white"/>
<path d="M150.005 63.3535H148.461V85.7384H150.005V63.3535Z" fill="white"/>
<g opacity="0.2">
<path d="M82.0651 85.7375C76.9266 85.7375 72.75 81.5828 72.75 76.4713C72.75 71.3598 76.9266 67.2051 82.0651 67.2051C87.2035 67.2051 91.3801 71.3598 91.3801 76.4713C91.3801 81.5828 87.2035 85.7375 82.0651 85.7375ZM82.0651 68.7411C77.7872 68.7411 74.2941 72.2159 74.2941 76.4713C74.2941 80.7267 77.7872 84.2015 82.0651 84.2015C86.3429 84.2015 89.836 80.7267 89.836 76.4713C89.836 72.2159 86.3429 68.7411 82.0651 68.7411Z" fill="white"/>
</g>
<g opacity="0.2">
<path d="M104.088 85.7375C98.95 85.7375 94.7734 81.5828 94.7734 76.4713C94.7734 71.3598 98.95 67.2051 104.088 67.2051C109.227 67.2051 113.404 71.3598 113.404 76.4713C113.404 81.5828 109.227 85.7375 104.088 85.7375ZM104.088 68.7411C99.8107 68.7411 96.3175 72.2159 96.3175 76.4713C96.3175 80.7267 99.8107 84.2015 104.088 84.2015C108.366 84.2015 111.859 80.7267 111.859 76.4713C111.859 72.2159 108.366 68.7411 104.088 68.7411Z" fill="white"/>
</g>
<g opacity="0.2">
<path d="M136.034 85.7375C130.895 85.7375 126.719 81.5828 126.719 76.4713C126.719 71.3598 130.895 67.2051 136.034 67.2051C141.172 67.2051 145.349 71.3598 145.349 76.4713C145.349 81.5828 141.172 85.7375 136.034 85.7375ZM136.034 68.7411C131.756 68.7411 128.263 72.2159 128.263 76.4713C128.263 80.7267 131.756 84.2015 136.034 84.2015C140.312 84.2015 143.805 80.7267 143.805 76.4713C143.805 72.2159 140.312 68.7411 136.034 68.7411Z" fill="white"/>
</g>
<path d="M82.0688 77.606C82.6978 77.606 83.2078 77.0987 83.2078 76.4729C83.2078 75.8471 82.6978 75.3398 82.0688 75.3398C81.4397 75.3398 80.9297 75.8471 80.9297 76.4729C80.9297 77.0987 81.4397 77.606 82.0688 77.606Z" fill="white"/>
<path d="M122.795 72.8717C123.424 72.8717 123.934 72.3644 123.934 71.7386C123.934 71.1128 123.424 70.6055 122.795 70.6055C122.166 70.6055 121.656 71.1128 121.656 71.7386C121.656 72.3644 122.166 72.8717 122.795 72.8717Z" fill="white"/>
<g opacity="0.2">
<path d="M27.2138 85.7372C22.126 85.7372 18 81.6329 18 76.5717C18 71.5106 22.126 67.4062 27.2138 67.4062C32.3016 67.4062 36.4276 71.5106 36.4276 76.5717C36.4276 81.6329 32.3016 85.7372 27.2138 85.7372ZM27.2138 68.9422C22.9866 68.9422 19.5441 72.3667 19.5441 76.5717C19.5441 80.7768 22.9866 84.2012 27.2138 84.2012C31.441 84.2012 34.8835 80.7768 34.8835 76.5717C34.8835 72.3667 31.441 68.9422 27.2138 68.9422Z" fill="white"/>
</g>
<g opacity="0.2">
<path d="M55.87 85.7372C50.7822 85.7372 46.6562 81.6329 46.6562 76.5717C46.6562 71.5106 50.7822 67.4062 55.87 67.4062C60.9579 67.4062 65.0839 71.5106 65.0839 76.5717C65.0839 81.6329 60.9579 85.7372 55.87 85.7372ZM55.87 68.9422C51.6428 68.9422 48.2003 72.3667 48.2003 76.5717C48.2003 80.7768 51.6428 84.2012 55.87 84.2012C60.0973 84.2012 63.5398 80.7768 63.5398 76.5717C63.5398 72.3667 60.0973 68.9422 55.87 68.9422Z" fill="white"/>
</g>
<path d="M55.87 85.7373C50.7822 85.7373 46.6562 81.633 46.6562 76.5718V75.8164H65.0839V76.5718C65.0839 81.633 60.9579 85.7373 55.87 85.7373ZM48.2256 77.3272C48.6053 81.1797 51.896 84.2013 55.87 84.2013C59.8441 84.2013 63.1348 81.1797 63.5145 77.3272H48.2256Z" fill="white"/>
<path d="M27.2138 85.7373C22.126 85.7373 18 81.633 18 76.5718V75.8164H19.5188V76.5718C19.5188 80.7768 22.9613 84.2013 27.1885 84.2013C31.4157 84.2013 34.8582 80.7768 34.8582 76.5718V75.8164H36.377V76.5718C36.377 81.633 32.251 85.7373 27.1632 85.7373H27.2138Z" fill="white"/>
<path d="M35.1609 85.7386C35.085 85.7386 34.9838 85.7386 34.9078 85.7386H34.1484L34.1991 84.2027H34.9584C37.6922 84.3034 40.2741 82.9185 41.7169 80.602C42.5269 79.3178 42.9066 77.8322 42.856 76.3214V75.566L44.3494 75.5156V76.271C44.4507 78.084 43.9951 79.8466 43.0332 81.4077C41.3625 84.102 38.3757 85.7638 35.1863 85.7638L35.1609 85.7386Z" fill="white"/>
<path d="M48.175 63.4531H46.6562V77.3524H48.175V63.4531Z" fill="white"/>
<path d="M25.9497 77.3779C26.5648 77.3779 27.0635 76.8819 27.0635 76.27C27.0635 75.6581 26.5648 75.1621 25.9497 75.1621C25.3346 75.1621 24.8359 75.6581 24.8359 76.27C24.8359 76.8819 25.3346 77.3779 25.9497 77.3779Z" fill="white"/>
<path d="M28.4809 77.3779C29.0961 77.3779 29.5947 76.8819 29.5947 76.27C29.5947 75.6581 29.0961 75.1621 28.4809 75.1621C27.8658 75.1621 27.3672 75.6581 27.3672 76.27C27.3672 76.8819 27.8658 77.3779 28.4809 77.3779Z" fill="white"/>
<path d="M63.8475 63.3546L46.9453 75.9785L47.8572 77.1867L64.7594 64.5627L63.8475 63.3546Z" fill="white"/>
<path d="M83.5088 108.123C82.2431 108.123 81.0281 107.619 80.1422 106.738C79.2309 105.831 78.75 104.648 78.75 103.389C78.75 102.13 79.2563 100.921 80.1422 100.04C82.0153 98.1768 85.0275 98.1768 86.9007 100.04L87.2044 100.342L81.0788 106.436C81.7622 106.99 82.6228 107.292 83.5341 107.292C84.4453 107.292 85.5591 106.889 86.2932 106.159L86.5969 105.857L87.2044 106.461L86.9007 106.763C85.9894 107.67 84.7997 108.148 83.5341 108.148L83.5088 108.123ZM83.5088 99.4861C82.4963 99.4861 81.5091 99.8638 80.7497 100.619C80.0156 101.349 79.6106 102.331 79.6106 103.364C79.6106 104.396 79.9144 105.126 80.4713 105.806L85.9894 100.317C85.2807 99.7379 84.3947 99.4609 83.5341 99.4609L83.5088 99.4861Z" fill="white"/>
<path d="M62.2919 108.123C59.6594 108.123 57.5078 105.983 57.5078 103.364C57.5078 100.746 59.6594 98.6055 62.2919 98.6055C64.9244 98.6055 67.076 100.746 67.076 103.364C67.076 105.983 64.9244 108.123 62.2919 108.123ZM62.2919 99.4868C60.1403 99.4868 58.3684 101.224 58.3684 103.39C58.3684 105.555 60.115 107.293 62.2919 107.293C64.4688 107.293 66.2154 105.555 66.2154 103.39C66.2154 101.224 64.4688 99.4868 62.2919 99.4868Z" fill="white"/>
<path d="M41.1844 108.123C37.4888 108.123 34.4766 105.126 34.4766 101.45C34.4766 97.7737 37.4888 94.7773 41.1844 94.7773C44.8801 94.7773 47.8923 97.7737 47.8923 101.45C47.8923 105.126 44.8801 108.123 41.1844 108.123ZM41.1844 95.6335C37.9444 95.6335 35.3372 98.2522 35.3372 101.45C35.3372 104.648 37.9697 107.267 41.1844 107.267C44.3991 107.267 47.0316 104.648 47.0316 101.45C47.0316 98.2522 44.3991 95.6335 41.1844 95.6335Z" fill="white"/>
<path d="M57.4354 108.122H48.5L56.0685 99.485H49.0063V98.6289H57.9669L50.3731 107.266H57.4354V108.122Z" fill="white"/>
<path d="M77.6854 108.123H76.8247V103.364C76.8247 101.224 75.0782 99.4616 72.9013 99.4616C70.7244 99.4616 68.9778 101.199 68.9778 103.364V108.123H68.1172V103.364C68.1172 100.746 70.2688 98.6055 72.9013 98.6055C75.5338 98.6055 77.6854 100.746 77.6854 103.364V108.123Z" fill="white"/>
<g opacity="0.2">
<path d="M83.5107 108.123C80.8781 108.123 78.7266 105.983 78.7266 103.364C78.7266 100.746 80.8781 98.6055 83.5107 98.6055C86.1432 98.6055 88.2947 100.746 88.2947 103.364C88.2947 105.983 86.1432 108.123 83.5107 108.123ZM83.5107 99.4868C81.3591 99.4868 79.5872 101.224 79.5872 103.39C79.5872 105.555 81.3338 107.293 83.5107 107.293C85.6875 107.293 87.4341 105.555 87.4341 103.39C87.4341 101.224 85.6875 99.4868 83.5107 99.4868Z" fill="white"/>
</g>
<g opacity="0.2">
<path d="M100.364 108.123C96.6685 108.123 93.6562 105.126 93.6562 101.45C93.6562 97.7737 96.6685 94.7773 100.364 94.7773C104.06 94.7773 107.072 97.7737 107.072 101.45C107.072 105.126 104.06 108.123 100.364 108.123ZM100.364 95.6335C97.1241 95.6335 94.5169 98.2522 94.5169 101.45C94.5169 104.648 97.1494 107.267 100.364 107.267C103.579 107.267 106.211 104.648 106.211 101.45C106.211 98.2522 103.579 95.6335 100.364 95.6335Z" fill="white"/>
</g>
<path d="M100.364 108.123C96.6685 108.123 93.6562 105.126 93.6562 101.45C93.6562 97.7737 96.6685 94.7773 100.364 94.7773C104.06 94.7773 104.009 95.5579 105.275 96.8925L105.553 97.1946L104.92 97.7737L104.642 97.4716C103.553 96.2881 101.984 95.6335 100.364 95.6335C97.1241 95.6335 94.5169 98.2522 94.5169 101.45C94.5169 104.648 97.1494 107.267 100.364 107.267C103.579 107.267 103.553 106.587 104.642 105.428L104.92 105.126L105.553 105.705L105.275 106.008C104.009 107.342 102.237 108.123 100.364 108.123Z" fill="white"/>
<path d="M128.768 108.123C126.136 108.123 123.984 105.983 123.984 103.364C123.984 100.746 126.136 98.6055 128.768 98.6055C131.401 98.6055 133.553 100.746 133.553 103.364C133.553 105.983 131.401 108.123 128.768 108.123ZM128.768 99.4868C126.617 99.4868 124.845 101.224 124.845 103.39C124.845 105.555 126.592 107.293 128.768 107.293C130.945 107.293 132.692 105.555 132.692 103.39C132.692 101.224 130.945 99.4868 128.768 99.4868Z" fill="white"/>
<path d="M133.556 94.7773H132.695V108.123H133.556V94.7773Z" fill="white"/>
<path d="M113.12 108.123C110.488 108.123 108.336 105.983 108.336 103.364C108.336 100.746 110.488 98.6055 113.12 98.6055C115.753 98.6055 117.904 100.746 117.904 103.364C117.904 105.983 115.753 108.123 113.12 108.123ZM113.12 99.4868C110.968 99.4868 109.197 101.224 109.197 103.39C109.197 105.555 110.943 107.293 113.12 107.293C115.297 107.293 117.043 105.555 117.043 103.39C117.043 101.224 115.297 99.4868 113.12 99.4868Z" fill="white"/>
<path d="M117.876 98.6309H117.016V108.124H117.876V98.6309Z" fill="white"/>
<path d="M121.048 98.6289H120.188V108.122H121.048V98.6289Z" fill="white"/>
<path d="M121.048 102.935H120.188V102.456C120.188 100.341 121.909 98.6289 124.035 98.6289H124.465V99.485H124.035C122.39 99.485 121.048 100.82 121.048 102.456V102.935Z" fill="white"/>
<defs>
<radialGradient id="paint0_radial_14955_88600" cx="0" cy="0" r="1" gradientUnits="userSpaceOnUse" gradientTransform="translate(79.4879 24.8534) scale(24.5786 24.4496)">
<stop stop-color="#24C8B0" stop-opacity="0"/>
<stop offset="1" stop-color="#24C8B0"/>
</radialGradient>
<linearGradient id="paint1_linear_14955_88600" x1="97.1044" y1="23.3417" x2="93.1451" y2="42.2854" gradientUnits="userSpaceOnUse">
<stop offset="0.1" stop-color="#24C8B0" stop-opacity="0"/>
<stop offset="1" stop-color="#24C8B0"/>
</linearGradient>
<radialGradient id="paint2_radial_14955_88600" cx="0" cy="0" r="1" gradientUnits="userSpaceOnUse" gradientTransform="translate(98.2483 35.9293) rotate(120.131) scale(24.4819 24.5461)">
<stop stop-color="#24C8B0" stop-opacity="0"/>
<stop offset="1" stop-color="#24C8B0"/>
</radialGradient>
<linearGradient id="paint3_linear_14955_88600" x1="90.7767" y1="51.8741" x2="76.3466" y2="38.9074" gradientUnits="userSpaceOnUse">
<stop offset="0.1" stop-color="#24C8B0" stop-opacity="0"/>
<stop offset="1" stop-color="#24C8B0"/>
</linearGradient>
<radialGradient id="paint4_radial_14955_88600" cx="0" cy="0" r="1" gradientUnits="userSpaceOnUse" gradientTransform="translate(79.0481 46.5443) rotate(-120.131) scale(24.4819 24.5461)">
<stop stop-color="#24C8B0" stop-opacity="0"/>
<stop offset="1" stop-color="#24C8B0"/>
</radialGradient>
<linearGradient id="paint5_linear_14955_88600" x1="68.899" y1="32.135" x2="87.3647" y2="26.0553" gradientUnits="userSpaceOnUse">
<stop offset="0.1" stop-color="white" stop-opacity="0"/>
<stop offset="1" stop-color="#24C8B0"/>
</linearGradient>
</defs>
</svg>
