<svg width="167" height="22" viewBox="0 0 167 22" fill="none" xmlns="http://www.w3.org/2000/svg">
<path d="M82.6703 21.9995C80.5322 21.9995 78.4959 21.1828 76.9687 19.6981C75.4415 18.2133 74.6016 16.2583 74.6016 14.1548C74.6016 12.0514 75.4415 10.0964 76.9687 8.6116C80.0995 5.56778 85.2156 5.56778 88.3464 8.6116L88.8554 9.10653L78.5214 19.1536C79.6922 20.0693 81.1431 20.5642 82.6703 20.5642C84.1975 20.5642 86.1065 19.896 87.3537 18.6834L87.8628 18.1885L88.8809 19.1784L88.3718 19.6733C86.8446 21.1581 84.8338 21.9747 82.6703 21.9747V21.9995ZM82.6703 7.74547C80.9904 7.74547 79.285 8.36414 77.9869 9.62621C76.7396 10.8388 76.0524 12.4473 76.0524 14.1796C76.0524 15.9118 76.5615 17.0749 77.5033 18.2133L86.7937 9.18077C85.5974 8.24041 84.1211 7.77022 82.6448 7.77022L82.6703 7.74547Z" fill="white"/>
<path d="M46.9105 21.9993C42.4816 21.9993 38.8672 18.4853 38.8672 14.1794C38.8672 9.87351 42.4816 6.3595 46.9105 6.3595C51.3393 6.3595 54.9537 9.87351 54.9537 14.1794C54.9537 18.4853 51.3393 21.9993 46.9105 21.9993ZM46.9105 7.7453C43.2706 7.7453 40.2926 10.6159 40.2926 14.1794C40.2926 17.7429 43.2452 20.6135 46.9105 20.6135C50.5757 20.6135 53.5283 17.7429 53.5283 14.1794C53.5283 10.6159 50.5757 7.7453 46.9105 7.7453Z" fill="white"/>
<path d="M11.3013 21.9998C5.06522 21.9998 0 17.0753 0 11.0124C0 4.94946 5.06522 0.0249023 11.3013 0.0249023C17.5374 0.0249023 22.6026 4.94946 22.6026 11.0124C22.6026 17.0753 17.5374 21.9998 11.3013 21.9998ZM11.3013 1.41071C5.85428 1.41071 1.42539 5.7166 1.42539 11.0124C1.42539 16.3081 5.85428 20.614 11.3013 20.614C16.7483 20.614 21.1772 16.3081 21.1772 11.0124C21.1772 5.7166 16.7483 1.41071 11.3013 1.41071Z" fill="white"/>
<path d="M38.711 21.9993H23.6172L36.4202 7.7453H24.4826V6.3595H39.5765L26.7989 20.6135H38.711V21.9993Z" fill="white"/>
<path d="M72.8209 21.9993H71.3955V14.1794C71.3955 10.6406 68.4429 7.7453 64.7777 7.7453C61.1124 7.7453 58.1598 10.6159 58.1598 14.1794V21.9993H56.7344V14.1794C56.7344 9.87351 60.3488 6.3595 64.7777 6.3595C69.2065 6.3595 72.8209 9.87351 72.8209 14.1794V21.9993Z" fill="white"/>
<g opacity="0.2">
<path d="M82.6761 21.9993C78.2472 21.9993 74.6328 18.4853 74.6328 14.1794C74.6328 9.87351 78.2472 6.3595 82.6761 6.3595C87.105 6.3595 90.7193 9.87351 90.7193 14.1794C90.7193 18.4853 87.105 21.9993 82.6761 21.9993ZM82.6761 7.7453C79.0363 7.7453 76.0582 10.6159 76.0582 14.1794C76.0582 17.7429 79.0108 20.6135 82.6761 20.6135C86.3414 20.6135 89.294 17.7429 89.294 14.1794C89.294 10.6159 86.3414 7.7453 82.6761 7.7453Z" fill="white"/>
</g>
<g opacity="0.2">
<path d="M111.075 22.0001C104.839 22.0001 99.7734 17.0755 99.7734 11.0126C99.7734 4.94971 104.839 0.0251465 111.075 0.0251465C117.311 0.0251465 122.376 4.94971 122.376 11.0126C122.376 17.0755 117.311 22.0001 111.075 22.0001ZM111.075 1.41095C105.628 1.41095 101.199 5.71685 101.199 11.0126C101.199 16.3084 105.628 20.6143 111.075 20.6143C116.522 20.6143 120.951 16.3084 120.951 11.0126C120.951 5.71685 116.522 1.41095 111.075 1.41095Z" fill="#24C8B0"/>
</g>
<path d="M111.075 22C104.839 22 99.7734 17.0754 99.7734 11.0125C99.7734 4.94958 104.839 0.0250244 111.075 0.0250244C117.311 0.0250244 117.209 1.2871 119.347 3.51429L119.831 4.03396L118.787 4.97433L118.303 4.45465C116.445 2.52442 113.824 1.41083 111.1 1.41083C105.653 1.41083 101.224 5.71673 101.224 11.0125C101.224 16.3082 105.653 20.6141 111.1 20.6141C116.547 20.6141 116.445 19.5005 118.303 17.5703L118.787 17.0506L119.831 17.991L119.347 18.5107C117.234 20.7379 114.205 22 111.075 22Z" fill="#24C8B0"/>
<path d="M158.957 21.9991C154.528 21.9991 150.914 18.4851 150.914 14.1792C150.914 9.87326 154.528 6.35925 158.957 6.35925C163.386 6.35925 167.001 9.87326 167.001 14.1792C167.001 18.4851 163.386 21.9991 158.957 21.9991ZM158.957 7.74506C155.318 7.74506 152.339 10.6157 152.339 14.1792C152.339 17.7427 155.292 20.6133 158.957 20.6133C162.623 20.6133 165.575 17.7427 165.575 14.1792C165.575 10.6157 162.623 7.74506 158.957 7.74506Z" fill="#24C8B0"/>
<path d="M166.972 0H165.547V21.9997H166.972V0Z" fill="#24C8B0"/>
<path d="M132.559 21.9998C128.13 21.9998 124.516 18.4858 124.516 14.1799C124.516 9.87399 128.13 6.35999 132.559 6.35999C136.988 6.35999 140.602 9.87399 140.602 14.1799C140.602 18.4858 136.988 21.9998 132.559 21.9998ZM132.559 7.74579C128.919 7.74579 125.941 10.6164 125.941 14.1799C125.941 17.7434 128.894 20.614 132.559 20.614C136.224 20.614 139.177 17.7434 139.177 14.1799C139.177 10.6164 136.224 7.74579 132.559 7.74579Z" fill="#24C8B0"/>
<path d="M140.605 6.35999H139.18V21.9998H140.605V6.35999Z" fill="#24C8B0"/>
<path d="M145.894 6.35925H144.469V21.9991H145.894V6.35925Z" fill="#24C8B0"/>
<path d="M145.918 13.4368H144.492V12.6696C144.492 9.18036 147.394 6.35925 150.983 6.35925H151.696V7.74506H150.983C148.208 7.74506 145.943 9.9475 145.943 12.6449V13.412L145.918 13.4368Z" fill="#24C8B0"/>
</svg>
