<svg width="24" height="24" viewBox="0 0 24 24" fill="none" xmlns="http://www.w3.org/2000/svg">
<path d="M15.2592 16.8022C14.6615 16.8022 14.1589 16.3152 14.1589 15.7199C14.1589 15.1111 14.6479 14.624 15.2456 14.624C17.5413 14.6105 19.5653 13.3794 20.6656 11.3229C21.7659 9.28002 21.6709 6.89889 20.4075 4.97775C19.2529 3.15131 17.2424 2.09604 15.0147 2.15015C12.7869 2.20427 10.8308 3.34072 9.75764 5.19421C9.45879 5.72185 8.77958 5.89773 8.26339 5.60009C7.73361 5.30245 7.55702 4.62599 7.85587 4.11188C9.30936 1.58193 11.9718 0.0396023 14.9739 -0.0280435C17.976 -0.0956893 20.6928 1.3384 22.2685 3.78718C23.9801 6.39831 24.1024 9.60472 22.6217 12.3647C21.1547 15.0976 18.3292 16.8022 15.2728 16.8293L15.2592 16.8022Z" fill="url(#paint0_radial_19864_99253)"/>
<path d="M15.2566 16.802C14.6589 16.802 14.1562 16.315 14.1562 15.7197C14.1562 15.1109 14.6453 14.6238 15.243 14.6238C17.5387 14.6103 19.5627 13.3792 20.663 11.3227C21.7633 9.27983 21.6682 6.89869 20.4049 4.97755C21.315 4.4905 21.5731 4.23345 22.2523 3.78699C23.9639 6.39812 24.0862 9.60453 22.6055 12.3645C21.1385 15.0974 18.313 16.802 15.2566 16.8291V16.802Z" fill="url(#paint1_linear_19864_99253)"/>
<path d="M7.77744 11.431C8.07629 10.9169 8.74191 10.7275 9.27169 11.0251C9.80146 11.3228 9.97806 11.9857 9.67921 12.5133C8.55173 14.5021 8.60607 16.8562 9.84222 18.845C11.0648 20.8202 13.1839 21.9296 15.4932 21.7943H15.5068C17.653 21.6996 19.582 20.4955 20.6551 18.5473C21.7283 16.5992 21.7147 14.3398 20.6415 12.4863C20.3427 11.9586 20.5193 11.2957 21.0355 10.9845C21.5652 10.6869 22.2309 10.8628 22.5433 11.3769C24.0104 13.8933 24.024 16.9644 22.5841 19.5891C21.1441 22.2002 18.536 23.8508 15.6154 23.9725C12.4911 24.1484 9.63846 22.6467 7.9812 19.9814C6.33753 17.3433 6.26961 14.0692 7.77744 11.4175V11.431Z" fill="url(#paint2_radial_19864_99253)"/>
<path d="M7.7754 11.4309C8.07425 10.9168 8.73987 10.7274 9.26965 11.0251C9.79943 11.3227 9.97602 11.9856 9.67717 12.5133C8.5497 14.502 8.60403 16.8561 9.84018 18.8449C11.0627 20.8202 13.1819 21.9296 15.4911 21.7943H15.5047C15.4504 22.8225 15.5591 23.1742 15.5998 23.986C12.4755 24.1619 9.62283 22.6601 7.96558 19.9949C6.32191 17.3567 6.25399 14.0826 7.76182 11.4309H7.7754Z" fill="url(#paint3_linear_19864_99253)"/>
<path d="M16.0901 7.64286C16.389 8.15697 16.2124 8.83343 15.6962 9.13107C15.1664 9.44224 14.5008 9.26636 14.1884 8.73872C13.0337 6.77699 10.9418 5.64055 8.60531 5.70819C6.26885 5.77584 4.25841 7.04758 3.21244 9.10401C2.2208 11.0252 2.30231 13.2845 3.47054 15.1786C4.62518 17.0727 6.59487 18.1956 8.75474 18.1956C9.36602 18.1956 9.85504 18.6827 9.85504 19.2915C9.85504 19.9003 9.36602 20.3873 8.75474 20.3873C5.83417 20.3873 3.15811 18.8721 1.59594 16.3151C0.0473605 13.758 -0.0884834 10.7005 1.26992 8.11638C2.68266 5.3429 5.39948 3.6247 8.55098 3.53C11.6617 3.43529 14.5551 5.00467 16.1037 7.64286H16.0901Z" fill="url(#paint4_radial_19864_99253)"/>
<path d="M16.0916 7.64286C16.3904 8.15697 16.2139 8.83343 15.6977 9.13107C15.1679 9.44224 14.5023 9.26636 14.1898 8.73872C13.0352 6.777 10.9432 5.64055 8.60678 5.70819C6.27032 5.77584 4.25988 7.04758 3.21391 9.10401C2.34453 8.56284 1.99135 8.48167 1.25781 8.11638C2.67055 5.3429 5.38736 3.6247 8.53886 3.53C11.6496 3.43529 14.543 5.00467 16.0916 7.64286Z" fill="url(#paint5_linear_19864_99253)"/>
<defs>
<radialGradient id="paint0_radial_19864_99253" cx="0" cy="0" r="1" gradientUnits="userSpaceOnUse" gradientTransform="translate(8.94259 4.62599) scale(16.4775 16.4109)">
<stop stop-color="#24C8B0" stop-opacity="0"/>
<stop offset="1" stop-color="#24C8B0"/>
</radialGradient>
<linearGradient id="paint1_linear_19864_99253" x1="20.7581" y1="3.61111" x2="18.1027" y2="16.3193" gradientUnits="userSpaceOnUse">
<stop offset="0.1" stop-color="#24C8B0" stop-opacity="0"/>
<stop offset="1" stop-color="#24C8B0"/>
</linearGradient>
<radialGradient id="paint2_radial_19864_99253" cx="0" cy="0" r="1" gradientUnits="userSpaceOnUse" gradientTransform="translate(21.5288 12.0596) rotate(120.101) scale(16.4275 16.4607)">
<stop stop-color="#24C8B0" stop-opacity="0"/>
<stop offset="1" stop-color="#24C8B0"/>
</radialGradient>
<linearGradient id="paint3_linear_19864_99253" x1="16.5117" y1="22.7671" x2="6.83826" y2="14.068" gradientUnits="userSpaceOnUse">
<stop offset="0.1" stop-color="#24C8B0" stop-opacity="0"/>
<stop offset="1" stop-color="#24C8B0"/>
</linearGradient>
<radialGradient id="paint4_radial_19864_99253" cx="0" cy="0" r="1" gradientUnits="userSpaceOnUse" gradientTransform="translate(8.65072 19.1881) rotate(-120.101) scale(16.4275 16.4607)">
<stop stop-color="#24C8B0" stop-opacity="0"/>
<stop offset="1" stop-color="#24C8B0"/>
</radialGradient>
<linearGradient id="paint5_linear_19864_99253" x1="1.86082" y1="9.50202" x2="14.2356" y2="5.42858" gradientUnits="userSpaceOnUse">
<stop offset="0.1" stop-color="#24C8B0" stop-opacity="0"/>
<stop offset="1" stop-color="#24C8B0"/>
</linearGradient>
</defs>
</svg>
