<svg width="324" height="187" viewBox="0 0 324 187" fill="none" xmlns="http://www.w3.org/2000/svg">
<path d="M30.871 48.0528C13.4079 47.4859 -1.51681 61.2989 1.23945 78.5524C3.98241 95.7228 9.42051 112.421 17.4115 128.011C30.2345 153.03 49.2098 174.376 72.5532 190.042C95.8965 205.708 122.841 215.18 150.852 217.566C178.864 219.953 207.022 215.176 232.679 203.685C258.337 192.194 280.65 174.366 297.52 151.877C314.391 129.389 325.265 102.98 329.12 75.1321C332.974 47.2846 329.683 18.9142 319.555 -7.31115C313.244 -23.6542 304.407 -38.8297 293.423 -52.309C282.385 -65.8536 262.142 -63.9157 250.937 -50.5092C239.732 -37.1028 242.065 -17.2983 251.434 -2.55024C255.039 3.12507 258.09 9.16275 260.531 15.4829C266.793 31.6977 268.828 49.2388 266.445 66.4566C264.061 83.6744 257.338 100.003 246.907 113.907C236.476 127.812 222.68 138.835 206.817 145.939C190.953 153.044 173.543 155.998 156.224 154.522C138.905 153.047 122.245 147.19 107.812 137.504C93.3794 127.818 81.6472 114.62 73.7189 99.1513C70.6287 93.1221 68.1559 86.8252 66.3221 80.3565C61.5569 63.5466 48.334 48.6196 30.871 48.0528Z" fill="url(#paint0_linear_20587_11916)" fill-opacity="0.18"/>
<defs>
<linearGradient id="paint0_linear_20587_11916" x1="324.245" y1="98.1588" x2="33" y2="15" gradientUnits="userSpaceOnUse">
<stop stop-color="white"/>
<stop offset="1" stop-color="white" stop-opacity="0"/>
</linearGradient>
</defs>
</svg>
