<svg width="99" height="68" viewBox="0 0 99 68" fill="none" xmlns="http://www.w3.org/2000/svg">
<path d="M7.2254 67.9703C7.2254 67.9703 -5.06226 55.4227 2.7628 40.6675C10.5883 25.9123 21.0886 33.3374 20.5862 16.1605C20.0839 -1.01638 44.7478 -2.48352 52.5967 2.49945C60.4455 7.48282 60.3963 13.4813 76.6036 11.502C92.8108 9.5227 95.901 26.0687 91.6821 34.4989C85.6956 46.4602 108.282 44.4949 94.0423 68L7.2254 67.9703Z" fill="#32373B"/>
<path fill-rule="evenodd" clip-rule="evenodd" d="M79.3287 45.4765L66.2759 29.4121C65.6496 28.656 64.7341 28.1982 63.7701 28.1982H35.7059C34.7425 28.1982 33.827 28.656 33.2007 29.4121L20.1484 45.4765V53.869H79.3293V45.4765H79.3287Z" fill="#1C2023"/>
<path fill-rule="evenodd" clip-rule="evenodd" d="M31.2057 7.46387H68.268C68.8468 7.46387 69.4019 7.69379 69.8111 8.10304C70.2204 8.5123 70.4503 9.06737 70.4503 9.64615V60.5719C70.4503 61.1507 70.2204 61.7058 69.8111 62.1151C69.4019 62.5243 68.8468 62.7542 68.268 62.7542H31.2057C30.6269 62.7542 30.0719 62.5243 29.6626 62.1151C29.2534 61.7058 29.0234 61.1507 29.0234 60.5719V9.64615C29.0234 9.06737 29.2534 8.5123 29.6626 8.10304C30.0719 7.69379 30.6269 7.46387 31.2057 7.46387V7.46387Z" fill="#5B5F63"/>
<path fill-rule="evenodd" clip-rule="evenodd" d="M36.0349 12.8936H63.4428C63.7322 12.8936 64.0097 13.0085 64.2143 13.2131C64.419 13.4178 64.5339 13.6953 64.5339 13.9847V27.6005C64.5339 27.8899 64.419 28.1674 64.2143 28.3721C64.0097 28.5767 63.7322 28.6917 63.4428 28.6917H36.0349C35.7455 28.6917 35.468 28.5767 35.2634 28.3721C35.0587 28.1674 34.9438 27.8899 34.9438 27.6005V13.9847C34.9438 13.6953 35.0587 13.4178 35.2634 13.2131C35.468 13.0085 35.7455 12.8936 36.0349 12.8936ZM36.1779 34.6149H63.2999C63.6272 34.6149 63.941 34.7449 64.1725 34.9764C64.4039 35.2078 64.5339 35.5217 64.5339 35.849C64.5339 36.1763 64.4039 36.4902 64.1725 36.7216C63.941 36.9531 63.6272 37.0831 63.2999 37.0831H36.1779C35.8506 37.0831 35.5367 36.9531 35.3052 36.7216C35.0738 36.4902 34.9438 36.1763 34.9438 35.849C34.9438 35.5217 35.0738 35.2078 35.3052 34.9764C35.5367 34.7449 35.8506 34.6149 36.1779 34.6149ZM36.1779 41.0325H63.2999C63.6272 41.0325 63.9412 41.1625 64.1727 41.394C64.4042 41.6255 64.5342 41.9395 64.5342 42.2668C64.5342 42.5942 64.4042 42.9082 64.1727 43.1397C63.9412 43.3711 63.6272 43.5012 63.2999 43.5012H36.1779C35.8505 43.5012 35.5365 43.3711 35.305 43.1397C35.0736 42.9082 34.9435 42.5942 34.9435 42.2668C34.9435 41.9395 35.0736 41.6255 35.305 41.394C35.5365 41.1625 35.8505 41.0325 36.1779 41.0325ZM79.2087 64.7659C78.7859 66.4414 77.3009 67.6902 75.5343 67.6902H23.9434C22.1769 67.6902 20.6918 66.4408 20.2696 64.7659C20.189 64.4466 20.1483 64.1186 20.1484 63.7893V45.4762H34.5068C36.0928 45.4762 37.371 46.8117 37.371 48.4332V48.455C37.371 50.0759 38.664 51.3847 40.25 51.3847H59.2277C60.8137 51.3847 62.1067 50.0639 62.1067 48.4424V48.4359C62.1067 46.8144 63.385 45.4756 64.9709 45.4756H79.3293V63.7899C79.3293 64.1265 79.2873 64.4533 79.2087 64.7659Z" fill="#42474B"/>
</svg>
