<svg width="60" height="60" viewBox="0 0 60 60" fill="none" xmlns="http://www.w3.org/2000/svg">
<path d="M7.38345 40.3048C7.2831 39.9207 7.17702 39.5365 7.17188 39.1524C7.17445 38.7683 7.28052 38.3841 7.38345 38C7.48638 38.3841 7.5854 38.7683 7.58797 39.1524C7.58283 39.5365 7.4838 39.9207 7.38345 40.3048Z" fill="#FF6F48"/>
<path d="M7.75845 51.2189C7.6581 50.8347 7.55202 50.4506 7.54688 50.0665C7.54945 49.6823 7.65552 49.2982 7.75845 48.9141C7.86138 49.2982 7.9604 49.6823 7.96297 50.0665C7.95783 50.4506 7.8588 50.8347 7.75845 51.2189Z" fill="#FF6F48"/>
<path d="M11.8038 44.4502C12.1841 44.3488 12.5645 44.2417 12.9449 44.2365C13.3252 44.2391 13.7056 44.3462 14.0859 44.4502C13.7056 44.5541 13.3252 44.6541 12.9449 44.6567C12.5645 44.6515 12.1841 44.5515 11.8038 44.4502Z" fill="#FF6F48"/>
<path d="M0.999092 44.4502C1.37945 44.3488 1.75981 44.2417 2.14017 44.2365C2.52053 44.2391 2.90089 44.3462 3.28125 44.4502C2.90089 44.5541 2.52053 44.6541 2.14017 44.6567C1.75981 44.6515 1.37945 44.5515 0.999092 44.4502Z" fill="#FF6F48"/>
<path d="M11.1515 42.4863C11.4261 42.2018 11.6978 41.9124 12.0214 41.7104C12.3489 41.5151 12.7297 41.4094 13.1088 41.301C12.8355 41.5877 12.5602 41.871 12.2353 42.0708C11.9065 42.2639 11.5294 42.3756 11.1515 42.4863Z" fill="#FF6F48"/>
<path d="M1.8781 48.0996C2.1527 47.8151 2.42436 47.5257 2.74793 47.3237C3.07546 47.1284 3.45622 47.0227 3.83537 46.9143C3.56208 47.201 3.28679 47.4843 2.96191 47.6841C2.63305 47.8772 2.25591 47.989 1.8781 48.0996Z" fill="#FF6F48"/>
<path d="M9.67512 40.904C9.76984 40.5184 9.85953 40.13 10.0378 39.7906C10.2227 39.455 10.4985 39.1695 10.7715 38.8826C10.679 39.2694 10.5832 39.6544 10.4027 39.9925C10.2154 40.3269 9.94587 40.6158 9.67512 40.904Z" fill="#FF6F48"/>
<path d="M4.26887 50.2582C4.36359 49.8726 4.45328 49.4843 4.6315 49.1449C4.81649 48.8092 5.09225 48.5238 5.36525 48.2368C5.27279 48.6237 5.17691 49.0086 4.99644 49.3468C4.80919 49.6812 4.53962 49.97 4.26887 50.2582Z" fill="#FF6F48"/>
<path d="M11.3033 46.6319C11.6842 46.7309 12.068 46.8249 12.4025 47.0078C12.7332 47.1976 13.0134 47.4786 13.2952 47.7568C12.913 47.66 12.5326 47.5598 12.1994 47.3746C11.8699 47.1826 11.5863 46.9078 11.3033 46.6319Z" fill="#FF6F48"/>
<path d="M1.87358 41.3053C2.25454 41.4043 2.63829 41.4983 2.97279 41.6812C3.30352 41.871 3.58374 42.152 3.86549 42.4302C3.48327 42.3334 3.10296 42.2332 2.76972 42.048C2.44024 41.856 2.15659 41.5812 1.87358 41.3053Z" fill="#FF6F48"/>
<path d="M9.8692 48.2199C10.1524 48.4956 10.4404 48.7684 10.6422 49.0941C10.8374 49.4238 10.9441 49.8077 11.0535 50.1901C10.7681 49.9156 10.4861 49.6392 10.2865 49.3122C10.0935 48.9811 9.9808 48.6008 9.8692 48.2199Z" fill="#FF6F48"/>
<path d="M4.25982 38.8905C4.54299 39.1663 4.83105 39.4391 5.03284 39.7647C5.22803 40.0944 5.33474 40.4784 5.44414 40.8607C5.15877 40.5863 4.87674 40.3098 4.67715 39.9828C4.48417 39.6517 4.37143 39.2715 4.25982 38.8905Z" fill="#FF6F48"/>
<path d="M48.3003 14.2705C48.1542 13.7254 47.9997 13.1803 47.9922 12.6352C47.9959 12.0902 48.1504 11.5451 48.3003 11C48.4502 11.5451 48.5944 12.0902 48.5981 12.6352C48.5907 13.1803 48.4464 13.7254 48.3003 14.2705Z" fill="#FF6F48"/>
<path d="M48.8394 29.7568C48.6932 29.2117 48.5387 28.6667 48.5312 28.1216C48.535 27.5765 48.6895 27.0314 48.8394 26.4863C48.9893 27.0314 49.1335 27.5765 49.1372 28.1216C49.1297 28.6667 48.9855 29.2117 48.8394 29.7568Z" fill="#FF6F48"/>
<path d="M54.739 20.1518C55.2929 20.008 55.8469 19.856 56.4008 19.8486C56.9547 19.8523 57.5086 20.0043 58.0625 20.1518C57.5086 20.2993 56.9547 20.4412 56.4008 20.4449C55.8469 20.4376 55.2929 20.2956 54.739 20.1518Z" fill="#FF6F48"/>
<path d="M38.9968 20.1518C39.5508 20.008 40.1047 19.856 40.6586 19.8486C41.2125 19.8523 41.7664 20.0043 42.3203 20.1518C41.7664 20.2993 41.2125 20.4412 40.6586 20.4449C40.1047 20.4376 39.5508 20.2956 38.9968 20.1518Z" fill="#FF6F48"/>
<path d="M53.7769 17.3667C54.1768 16.963 54.5724 16.5524 55.0436 16.2657C55.5206 15.9886 56.0751 15.8386 56.6272 15.6848C56.2292 16.0917 55.8283 16.4937 55.3552 16.7771C54.8763 17.0511 54.3271 17.2097 53.7769 17.3667Z" fill="#FF6F48"/>
<path d="M40.2847 25.3306C40.6846 24.9269 41.0802 24.5162 41.5514 24.2296C42.0284 23.9525 42.5829 23.8025 43.135 23.6487C42.737 24.0555 42.3361 24.4575 41.863 24.741C41.3841 25.015 40.8349 25.1736 40.2847 25.3306Z" fill="#FF6F48"/>
<path d="M51.6345 15.1195C51.7725 14.5723 51.9031 14.0212 52.1626 13.5396C52.432 13.0634 52.8336 12.6583 53.2312 12.2511C53.0965 12.8001 52.9569 13.3463 52.6941 13.8261C52.4214 14.3006 52.0288 14.7105 51.6345 15.1195Z" fill="#FF6F48"/>
<path d="M43.7674 28.3949C43.9053 27.8477 44.0359 27.2966 44.2954 26.815C44.5648 26.3388 44.9664 25.9337 45.364 25.5265C45.2293 26.0754 45.0897 26.6217 44.8269 27.1015C44.5542 27.576 44.1616 27.9859 43.7674 28.3949Z" fill="#FF6F48"/>
<path d="M54.0035 23.2476C54.5583 23.3881 55.1172 23.5215 55.6043 23.781C56.0859 24.0503 56.494 24.449 56.9043 24.8437C56.3477 24.7065 55.7939 24.5643 55.3086 24.3015C54.8288 24.029 54.4157 23.6392 54.0035 23.2476Z" fill="#FF6F48"/>
<path d="M40.2691 15.69C40.8239 15.8305 41.3828 15.9638 41.8699 16.2234C42.3516 16.4927 42.7596 16.8914 43.1699 17.2861C42.6133 17.1488 42.0595 17.0067 41.5742 16.7439C41.0944 16.4714 40.6813 16.0815 40.2691 15.69Z" fill="#FF6F48"/>
<path d="M51.9182 25.5014C52.3305 25.8927 52.75 26.2797 53.0439 26.7418C53.3281 27.2097 53.4835 27.7545 53.6429 28.297C53.2273 27.9076 52.8166 27.5153 52.5259 27.0513C52.2449 26.5815 52.0807 26.0419 51.9182 25.5014Z" fill="#FF6F48"/>
<path d="M43.7541 12.2641C44.1665 12.6554 44.586 13.0424 44.8798 13.5045C45.1641 13.9724 45.3195 14.5172 45.4788 15.0597C45.0632 14.6703 44.6525 14.278 44.3619 13.814C44.0808 13.3442 43.9166 12.8046 43.7541 12.2641Z" fill="#FF6F48"/>
<circle cx="28.5" cy="31.5" r="20.5" fill="#5B5F63"/>
<rect width="49.1542" height="27.9223" rx="4" transform="matrix(-0.996437 0.0843447 -0.079501 -0.996835 55.1953 43.834)" fill="#0A9580" fill-opacity="0.5"/>
<rect width="47.5011" height="26.1218" rx="3" transform="matrix(-1 -8.78888e-08 0.00397086 -0.999992 53.3281 44.1489)" fill="#24C8B0"/>
<g clip-path="url(#clip0_19885_16811)">
<path d="M15.5446 27.5839C15.3067 27.5844 15.1071 27.3863 15.1076 27.1437C15.1081 26.8955 15.3031 26.6967 15.541 26.6962C16.4547 26.689 17.2613 26.1857 17.701 25.3468C18.1407 24.5134 18.1048 23.543 17.6037 22.761C17.1457 22.0175 16.3464 21.589 15.4597 21.6127C14.573 21.6365 13.7935 22.1011 13.3648 22.8573C13.2454 23.0726 12.975 23.1448 12.7698 23.0238C12.5592 22.9029 12.4895 22.6274 12.6088 22.4176C13.1895 21.3855 14.2505 20.7549 15.4454 20.725C16.6402 20.6952 17.7203 21.2776 18.3454 22.2744C19.0244 23.3373 19.0703 24.6439 18.4786 25.7698C17.8924 26.8847 16.7664 27.5816 15.55 27.5949L15.5446 27.5839Z" fill="url(#paint0_radial_19885_16811)"/>
<path d="M15.544 27.5839C15.3062 27.5844 15.1065 27.3862 15.107 27.1436C15.1076 26.8955 15.3026 26.6967 15.5405 26.6962C16.4542 26.689 17.2608 26.1857 17.7005 25.3467C18.1401 24.5133 18.1043 23.543 17.6031 22.761C17.9658 22.5618 18.0687 22.4569 18.3394 22.2744C19.0184 23.3372 19.0644 24.6439 18.4727 25.7698C17.8865 26.8847 16.7605 27.5816 15.544 27.5949L15.544 27.5839Z" fill="url(#paint1_linear_19885_16811)"/>
<path d="M12.5708 25.4006C12.6902 25.1909 12.9553 25.1132 13.1659 25.2341C13.3765 25.355 13.4462 25.625 13.3268 25.8403C12.8764 26.6517 12.896 27.611 13.3863 28.4206C13.8712 29.2247 14.7136 29.6752 15.6329 29.6183L15.6383 29.6183C16.4926 29.5781 17.2613 29.0859 17.6901 28.2911C18.1188 27.4963 18.1154 26.5755 17.6898 25.8209C17.5713 25.6061 17.6422 25.3358 17.8479 25.2086C18.059 25.0869 18.3238 25.1581 18.4477 25.3674C19.0294 26.3918 19.0322 27.6434 18.4569 28.7142C17.8816 29.7794 16.8422 30.4541 15.6797 30.5059C14.436 30.58 13.302 29.9701 12.6446 28.8852C11.9927 27.8112 11.9684 26.4769 12.5708 25.3951L12.5708 25.4006Z" fill="url(#paint2_radial_19885_16811)"/>
<path d="M12.5684 25.4006C12.6878 25.1908 12.9529 25.1131 13.1635 25.234C13.3741 25.3549 13.4438 25.625 13.3244 25.8402C12.874 26.6516 12.8936 27.611 13.3839 28.4205C13.8688 29.2246 14.7113 29.6751 15.6305 29.6183L15.6359 29.6182C15.6134 30.0373 15.6564 30.1806 15.6719 30.5114C14.4282 30.5854 13.2942 29.9756 12.6368 28.8906C11.9849 27.8167 11.9607 26.4824 12.563 25.4006L12.5684 25.4006Z" fill="url(#paint3_linear_19885_16811)"/>
<path d="M15.8839 23.8505C16.0024 24.0598 15.9315 24.3356 15.7258 24.4573C15.5147 24.5845 15.2499 24.5133 15.126 24.2985C14.6681 23.4999 13.8365 23.0383 12.9065 23.0677C11.9766 23.097 11.1753 23.6168 10.7573 24.4557C10.361 25.2394 10.3915 26.1601 10.8548 26.9312C11.3128 27.7022 12.0958 28.1584 12.9554 28.1567C13.1987 28.1563 13.3929 28.3544 13.3924 28.6025C13.3919 28.8506 13.1968 29.0495 12.9535 29.05C11.7911 29.0522 10.7274 28.4367 10.1078 27.3958C9.49363 26.3548 9.44217 25.1088 9.98501 24.0547C10.5496 22.9233 11.6324 22.221 12.8868 22.18C14.1249 22.139 15.2752 22.7764 15.8893 23.8505L15.8839 23.8505Z" fill="url(#paint4_radial_19885_16811)"/>
<path d="M15.8847 23.8505C16.0032 24.0598 15.9324 24.3356 15.7267 24.4573C15.5156 24.5845 15.2508 24.5133 15.1269 24.2985C14.669 23.4999 13.8374 23.0384 12.9074 23.0677C11.9774 23.097 11.1762 23.6169 10.7582 24.4557C10.4126 24.2358 10.2721 24.203 9.98047 24.0547C10.5451 22.9233 11.6279 22.221 12.8822 22.18C14.1204 22.1391 15.2706 22.7765 15.8847 23.8505Z" fill="url(#paint5_linear_19885_16811)"/>
</g>
<path d="M19.1969 37.2369C18.9248 37.2374 18.653 37.1334 18.4664 36.9247C18.2797 36.7335 18.1613 36.455 18.1618 36.1762C18.1624 35.8975 18.265 35.6186 18.4695 35.4266C18.8785 35.0077 19.5247 35.0065 19.9319 35.4238L19.9998 35.4933L18.6706 36.8547C18.8234 36.9763 19.0103 37.0456 19.1973 37.0453C19.3844 37.0449 19.6396 36.9573 19.793 36.7829L19.8612 36.713L19.9969 36.8521L19.9288 36.922C19.7413 37.1139 19.469 37.2364 19.1969 37.2369ZM19.2009 35.3032C18.9799 35.3037 18.7586 35.3912 18.6052 35.5657C18.4519 35.7228 18.3494 35.9494 18.3489 36.1759C18.3484 36.4024 18.4161 36.559 18.5348 36.7156L19.7277 35.4939C19.5749 35.3722 19.388 35.3029 19.2009 35.3032Z" fill="white"/>
<path d="M14.5953 37.2466C14.0172 37.2477 13.559 36.7782 13.5603 36.1859C13.5615 35.5936 14.0216 35.1224 14.5998 35.1213C15.1779 35.1202 15.6361 35.5897 15.6349 36.182C15.6336 36.7743 15.1735 37.2455 14.5953 37.2466ZM14.5994 35.3129C14.1233 35.3138 13.7484 35.6978 13.7473 36.1856C13.7463 36.6734 14.1196 37.0559 14.5957 37.055C15.0719 37.0541 15.4468 36.6701 15.4478 36.1823C15.4488 35.6946 15.0755 35.312 14.5994 35.3129Z" fill="white"/>
<path d="M10.0265 37.2554C9.22724 37.2569 8.56544 36.5962 8.56719 35.76C8.56893 34.9238 9.21649 34.2606 10.0327 34.2591C10.8489 34.2575 11.4937 34.9183 11.492 35.7544C11.4902 36.5906 10.8427 37.2538 10.0265 37.2554ZM10.0323 34.4681C9.33509 34.4694 8.75573 35.0454 8.7542 35.7771C8.75267 36.5087 9.31263 37.0825 10.0268 37.0812C10.741 37.0798 11.3034 36.5039 11.3049 35.7722C11.3064 35.0406 10.7465 34.4667 10.0323 34.4681Z" fill="white"/>
<path d="M13.5435 37.2498L11.605 37.2535L13.2584 35.3341L11.728 35.337L11.7284 35.1453L13.6669 35.1417L12.0135 37.0611L13.5439 37.0581L13.5435 37.2498Z" fill="white"/>
<path d="M17.9295 37.2407L17.7425 37.2411L17.7447 36.1784C17.7457 35.6907 17.3724 35.3081 16.8963 35.309C16.4201 35.3099 16.0452 35.6939 16.0442 36.1817L16.042 37.2443L15.8549 37.2447L15.8572 36.182C15.8584 35.5897 16.3185 35.1185 16.8967 35.1174C17.4748 35.1163 17.933 35.5858 17.9317 36.1781L17.9295 37.2407Z" fill="white"/>
<g opacity="0.1">
<path d="M19.1891 37.2397C18.6109 37.2408 18.1528 36.7713 18.154 36.179C18.1553 35.5867 18.6154 35.1155 19.1935 35.1144C19.7717 35.1133 20.2298 35.5828 20.2286 36.1751C20.2274 36.7674 19.7673 37.2386 19.1891 37.2397ZM19.1931 35.306C18.717 35.3069 18.3421 35.6909 18.3411 36.1787C18.3401 36.6665 18.7134 37.049 19.1895 37.0481C19.6656 37.0472 20.0405 36.6632 20.0416 36.1755C20.0426 35.6877 19.6693 35.3051 19.1931 35.306Z" fill="white"/>
</g>
<g opacity="0.1">
<path d="M9.44947 40.2382C8.97334 40.2391 8.58307 39.8392 8.58408 39.3514C8.5851 38.8636 8.97704 38.4622 9.45318 38.4613C9.92931 38.4604 10.3196 38.8603 10.3186 39.3481C10.3175 39.8359 9.9256 40.2373 9.44947 40.2382ZM9.45296 38.5658C9.02784 38.5666 8.68702 38.9157 8.68611 39.3512C8.6852 39.7867 9.02457 40.1345 9.44969 40.1337C9.8748 40.1329 10.2156 39.7838 10.2165 39.3483C10.2174 38.9128 9.87807 38.565 9.45296 38.5658Z" fill="white"/>
</g>
<path d="M9.44947 40.2381C8.97334 40.239 8.58307 39.8391 8.58408 39.3513C8.5851 38.8635 8.97704 38.4621 9.45318 38.4612C9.92931 38.4603 9.92909 38.5648 10.0818 38.7387L10.1157 38.7735L10.0305 38.8433L9.9966 38.8086C9.86089 38.652 9.65701 38.5653 9.43595 38.5657C9.01084 38.5665 8.67002 38.9156 8.66911 39.3511C8.6682 39.7866 9.00756 40.1344 9.43268 40.1336C9.8578 40.1328 9.84098 40.0457 9.99434 39.8886L10.0284 39.8537L10.1133 39.9232L10.0792 39.9581C9.90881 40.1327 9.68753 40.2376 9.44947 40.2381Z" fill="white"/>
<path d="M13.1425 40.234C12.8022 40.2346 12.5135 39.9561 12.5143 39.5898C12.515 39.2235 12.7879 38.9439 13.1452 38.9433C13.5025 38.9426 13.7742 39.2211 13.7734 39.5874C13.7727 39.9537 13.4998 40.2333 13.1425 40.234ZM13.1449 39.0828C12.8556 39.0833 12.634 39.3105 12.6334 39.607C12.6327 39.9036 12.8535 40.1299 13.1427 40.1293C13.432 40.1288 13.6537 39.9016 13.6543 39.6051C13.6549 39.3086 13.4342 39.0822 13.1449 39.0828Z" fill="white"/>
<path d="M13.776 38.4568L13.6562 38.457L13.6525 40.2515L13.7723 40.2512L13.776 38.4568Z" fill="white"/>
<path d="M11.0956 40.2377C10.7553 40.2384 10.4666 39.9598 10.4674 39.5935C10.4682 39.2273 10.741 38.9477 11.0983 38.947C11.4556 38.9463 11.7273 39.2249 11.7266 39.5911C11.7258 39.9574 11.453 40.237 11.0956 40.2377ZM11.098 39.0865C10.8088 39.0871 10.5871 39.3142 10.5865 39.6108C10.5859 39.9073 10.8066 40.1336 11.0958 40.1331C11.3851 40.1325 11.6068 39.9053 11.6074 39.6088C11.608 39.3123 11.3873 39.086 11.098 39.0865Z" fill="white"/>
<path d="M11.7292 38.9637L11.6094 38.9639L11.6067 40.2373L11.7265 40.2371L11.7292 38.9637Z" fill="white"/>
<path d="M12.1354 38.9605L12.0156 38.9608L12.013 40.2341L12.1328 40.2339L12.1354 38.9605Z" fill="white"/>
<path d="M12.1337 39.5372L12.0144 39.5374L12.0146 39.4675C12.0152 39.1879 12.2372 38.9603 12.51 38.9598L12.5611 38.9597L12.5609 39.082L12.5097 39.0821C12.2881 39.0826 12.1173 39.2576 12.1168 39.4848L12.1167 39.5547L12.1337 39.5372Z" fill="white"/>
<mask id="mask0_19885_16811" style="mask-type:alpha" maskUnits="userSpaceOnUse" x="31" y="18" width="23" height="22">
<rect width="21.3943" height="21.9468" rx="4" transform="matrix(-0.999998 0.00190376 0.00208717 -0.999998 53.2422 39.9499)" fill="#24C8B0"/>
</mask>
<g mask="url(#mask0_19885_16811)">
<path d="M71.1083 18.8745C71.0873 28.9276 63.0311 37.0927 53.1143 37.1115C43.1975 37.1304 35.1754 28.996 35.1964 18.9428C35.2174 8.88964 43.2735 0.724624 53.1903 0.705744C63.1071 0.686864 71.1292 8.82127 71.1083 18.8745ZM40.1184 18.9335C40.1032 26.2309 45.9263 32.1355 53.1247 32.1218C60.3232 32.1081 66.171 26.1812 66.1862 18.8838C66.2014 11.5864 60.3783 5.68178 53.1799 5.69548C45.9815 5.70919 40.1337 11.636 40.1184 18.9335Z" fill="url(#paint6_linear_19885_16811)"/>
</g>
<defs>
<radialGradient id="paint0_radial_19885_16811" cx="0" cy="0" r="1" gradientUnits="userSpaceOnUse" gradientTransform="translate(13.0409 22.6263) rotate(-0.109081) scale(6.55805 6.68814)">
<stop stop-color="white" stop-opacity="0"/>
<stop offset="1" stop-color="white"/>
</radialGradient>
<linearGradient id="paint1_linear_19885_16811" x1="17.7449" y1="22.2038" x2="16.647" y2="27.3786" gradientUnits="userSpaceOnUse">
<stop offset="0.1" stop-color="white" stop-opacity="0"/>
<stop offset="1" stop-color="white"/>
</linearGradient>
<radialGradient id="paint2_radial_19885_16811" cx="0" cy="0" r="1" gradientUnits="userSpaceOnUse" gradientTransform="translate(18.0433 25.6464) rotate(119.579) scale(6.66727 6.57857)">
<stop stop-color="white" stop-opacity="0"/>
<stop offset="1" stop-color="white"/>
</radialGradient>
<linearGradient id="paint3_linear_19885_16811" x1="16.0359" y1="30.0139" x2="12.1134" y2="26.5668" gradientUnits="userSpaceOnUse">
<stop offset="0.1" stop-color="white" stop-opacity="0"/>
<stop offset="1" stop-color="white"/>
</linearGradient>
<radialGradient id="paint4_radial_19885_16811" cx="0" cy="0" r="1" gradientUnits="userSpaceOnUse" gradientTransform="translate(12.9132 28.5613) rotate(-119.451) scale(6.6445 6.60112)">
<stop stop-color="white" stop-opacity="0"/>
<stop offset="1" stop-color="white"/>
</radialGradient>
<linearGradient id="paint5_linear_19885_16811" x1="10.2193" y1="24.619" x2="15.1753" y2="23.0352" gradientUnits="userSpaceOnUse">
<stop offset="0.1" stop-color="white" stop-opacity="0"/>
<stop offset="1" stop-color="white"/>
</linearGradient>
<linearGradient id="paint6_linear_19885_16811" x1="38.4623" y1="18.3456" x2="55.311" y2="33.9274" gradientUnits="userSpaceOnUse">
<stop stop-color="white"/>
<stop offset="1" stop-color="white" stop-opacity="0"/>
</linearGradient>
<clipPath id="clip0_19885_16811">
<rect width="9.55343" height="9.78977" fill="white" transform="matrix(0.999998 -0.00190383 -0.00208709 0.999998 9.46875 20.7479)"/>
</clipPath>
</defs>
</svg>
