<svg width="50" height="83" viewBox="0 0 50 83" fill="none" xmlns="http://www.w3.org/2000/svg">
<g clip-path="url(#clip0_14796_41660)">
<path d="M31.856 34.9736C30.611 34.9736 29.564 33.9598 29.564 32.7207C29.564 31.4535 30.5827 30.4397 31.8277 30.4397C36.6097 30.4116 40.8258 27.8489 43.1178 23.5685C45.4097 19.3162 45.2117 14.3599 42.5802 10.361C40.175 6.55933 35.9872 4.36279 31.3467 4.47543C26.7061 4.58807 22.6315 6.95358 20.3961 10.8116C19.7736 11.9099 18.3588 12.276 17.2836 11.6564C16.18 11.0369 15.8122 9.62886 16.4347 8.55875C19.4624 3.29268 25.0084 0.0823403 31.2618 -0.0584639C37.5152 -0.199268 43.1744 2.78578 46.4567 7.88289C50.022 13.3179 50.2766 19.992 47.1924 25.7369C44.1364 31.4253 38.2509 34.9736 31.8843 35.0299L31.856 34.9736Z" fill="url(#paint0_radial_14796_41660)"/>
<path d="M31.8545 34.9733C30.6094 34.9733 29.5625 33.9595 29.5625 32.7204C29.5625 31.4532 30.5812 30.4394 31.8262 30.4394C36.6082 30.4112 40.8243 27.8486 43.1162 23.5682C45.4082 19.3159 45.2102 14.3596 42.5786 10.3607C44.4745 9.34693 45.0121 8.81188 46.4269 7.88257C49.9922 13.3176 50.2468 19.9917 47.1626 25.7365C44.1066 31.425 38.2211 34.9733 31.8545 35.0296V34.9733Z" fill="url(#paint1_linear_14796_41660)"/>
<path d="M16.2697 23.7935C16.8922 22.7234 18.2787 22.3291 19.3823 22.9487C20.4858 23.5682 20.8537 24.9481 20.2312 26.0464C17.8826 30.186 17.9958 35.086 20.5707 39.2256C23.1173 43.3371 27.5315 45.6463 32.3418 45.3647H32.3701C36.8409 45.1676 40.8589 42.6613 43.0943 38.6061C45.3296 34.5509 45.3014 29.8481 43.066 25.9901C42.4435 24.8918 42.8113 23.5119 43.8865 22.8642C44.9901 22.2447 46.3766 22.6108 47.0274 23.6809C50.0834 28.9188 50.1117 35.3113 47.1123 40.7745C44.1129 46.2095 38.6801 49.6452 32.5965 49.8986C26.0884 50.2647 20.1463 47.1388 16.6942 41.5912C13.2704 36.0998 13.1289 29.2849 16.2697 23.7653V23.7935Z" fill="url(#paint2_radial_14796_41660)"/>
<path d="M16.2668 23.7935C16.8893 22.7234 18.2758 22.3292 19.3793 22.9487C20.4829 23.5683 20.8507 24.9481 20.2282 26.0464C17.8796 30.186 17.9928 35.086 20.5678 39.2257C23.1144 43.3372 27.5286 45.6463 32.3389 45.3647H32.3672C32.254 47.505 32.4803 48.2371 32.5652 49.9268C26.0572 50.2929 20.115 47.167 16.6629 41.6193C13.2391 36.128 13.0976 29.3131 16.2385 23.7935H16.2668Z" fill="url(#paint3_linear_14796_41660)"/>
<path d="M33.582 15.9084C34.2045 16.9786 33.8367 18.3866 32.7614 19.0061C31.6579 19.6538 30.2714 19.2877 29.6206 18.1895C27.2154 14.1062 22.8578 11.7406 17.9909 11.8814C13.124 12.0223 8.93624 14.6694 6.75745 18.9498C4.69185 22.9487 4.86163 27.6515 7.29508 31.594C9.70024 35.5365 13.8032 37.8739 18.3022 37.8739C19.5755 37.8739 20.5942 38.8877 20.5942 40.1549C20.5942 41.4222 19.5755 42.4359 18.3022 42.4359C12.2186 42.4359 6.64428 39.2819 3.39025 33.9595C0.164512 28.6371 -0.118455 22.2728 2.71114 16.8941C5.65392 11.1211 11.3131 7.54468 17.8778 7.34755C24.3575 7.15043 30.3846 10.4171 33.6103 15.9084H33.582Z" fill="url(#paint4_radial_14796_41660)"/>
<path d="M33.5789 15.9084C34.2014 16.9786 33.8335 18.3866 32.7583 19.0061C31.6547 19.6538 30.2682 19.2877 29.6174 18.1895C27.2123 14.1062 22.8547 11.7406 17.9878 11.8814C13.1209 12.0223 8.93308 14.6694 6.75429 18.9498C4.94335 17.8234 4.20767 17.6544 2.67969 16.8941C5.62246 11.1211 11.2816 7.54468 17.8463 7.34755C24.3261 7.15043 30.3531 10.4171 33.5789 15.9084Z" fill="url(#paint5_linear_14796_41660)"/>
</g>
<path d="M45.4253 70.5001C44.2625 70.5001 43.0997 70.064 42.3003 69.1919C41.5009 68.3925 40.9922 67.2297 40.9922 66.0669C40.9922 64.9041 41.4282 63.7413 42.3003 62.9419C44.0445 61.1977 46.8061 61.1977 48.5503 62.9419L48.841 63.2326L43.1724 68.9012C43.8265 69.41 44.6259 69.7007 45.4253 69.7007C46.2247 69.7007 47.3149 69.3373 47.9689 68.6105L48.2596 68.3198L48.841 68.9012L48.5503 69.1919C47.7509 69.9914 46.5881 70.5001 45.4253 70.5001ZM45.4253 62.4332C44.4806 62.4332 43.5358 62.7966 42.8817 63.5233C42.2277 64.1774 41.7916 65.1222 41.7916 66.0669C41.7916 67.0117 42.0823 67.6658 42.591 68.3198L47.6782 63.2326C47.0242 62.7239 46.2247 62.4332 45.4253 62.4332Z" fill="white"/>
<path d="M25.8003 70.5001C23.3294 70.5001 21.3672 68.5379 21.3672 66.0669C21.3672 63.596 23.3294 61.6338 25.8003 61.6338C28.2713 61.6338 30.2335 63.596 30.2335 66.0669C30.2335 68.5379 28.2713 70.5001 25.8003 70.5001ZM25.8003 62.4332C23.7654 62.4332 22.1666 64.032 22.1666 66.0669C22.1666 68.1018 23.7654 69.7006 25.8003 69.7006C27.8352 69.7006 29.4341 68.1018 29.4341 66.0669C29.4341 64.032 27.8352 62.4332 25.8003 62.4332Z" fill="white"/>
<path d="M6.25 70.5C2.8343 70.5 0 67.7384 0 64.25C0 60.7616 2.76163 58 6.25 58C9.73838 58 12.5 60.7616 12.5 64.25C12.5 67.7384 9.73838 70.5 6.25 70.5ZM6.25 58.8721C3.27035 58.8721 0.799419 61.2703 0.799419 64.3227C0.799419 67.375 3.19768 69.7733 6.25 69.7733C9.30233 69.7733 11.7006 67.375 11.7006 64.3227C11.7006 61.2703 9.30233 58.8721 6.25 58.8721Z" fill="white"/>
<path d="M21.2927 70.4999H13.0078L20.0572 62.5057H13.5165V61.7063H21.8014L14.752 69.7005H21.2927V70.4999Z" fill="white"/>
<path d="M40.046 70.5001H39.2466V66.0669C39.2466 64.032 37.6477 62.4332 35.6128 62.4332C33.5779 62.4332 31.9791 64.032 31.9791 66.0669V70.5001H31.1797V66.0669C31.1797 63.596 33.1419 61.6338 35.6128 61.6338C38.0838 61.6338 40.046 63.596 40.046 66.0669V70.5001Z" fill="white"/>
<g opacity="0.1">
<path d="M45.4253 70.5001C42.9544 70.5001 40.9922 68.5379 40.9922 66.0669C40.9922 63.596 42.9544 61.6338 45.4253 61.6338C47.8963 61.6338 49.8585 63.596 49.8585 66.0669C49.8585 68.5379 47.8963 70.5001 45.4253 70.5001ZM45.4253 62.4332C43.3904 62.4332 41.7916 64.032 41.7916 66.0669C41.7916 68.1018 43.3904 69.7006 45.4253 69.7006C47.4602 69.7006 49.0591 68.1018 49.0591 66.0669C49.0591 64.032 47.4602 62.4332 45.4253 62.4332Z" fill="white"/>
</g>
<g opacity="0.1">
<path d="M3.77671 82.9274C1.74182 82.9274 0.0703125 81.2559 0.0703125 79.2211C0.0703125 77.1862 1.74182 75.5146 3.77671 75.5146C5.81159 75.5146 7.48311 77.1862 7.48311 79.2211C7.48311 81.2559 5.81159 82.9274 3.77671 82.9274ZM3.77671 75.9507C1.95985 75.9507 0.506358 77.4042 0.506358 79.2211C0.506358 81.0379 1.95985 82.4914 3.77671 82.4914C5.59357 82.4914 7.04706 81.0379 7.04706 79.2211C7.04706 77.4042 5.59357 75.9507 3.77671 75.9507Z" fill="white"/>
</g>
<path d="M3.77671 82.9274C1.74182 82.9274 0.0703125 81.2559 0.0703125 79.2211C0.0703125 77.1862 1.74182 75.5146 3.77671 75.5146C5.81159 75.5146 5.81159 75.9507 6.46566 76.6774L6.61101 76.8228L6.24764 77.1135L6.10229 76.9681C5.5209 76.3141 4.6488 75.9507 3.70404 75.9507C1.88717 75.9507 0.433685 77.4042 0.433685 79.2211C0.433685 81.0379 1.88717 82.4914 3.70404 82.4914C5.5209 82.4914 5.44822 82.128 6.10229 81.474L6.24764 81.3286L6.61101 81.6193L6.46566 81.7647C5.73892 82.4914 4.79415 82.9274 3.77671 82.9274Z" fill="white"/>
<path d="M19.5483 82.9275C18.0948 82.9275 16.8594 81.7647 16.8594 80.2385C16.8594 78.7123 18.0222 77.5496 19.5483 77.5496C21.0745 77.5496 22.2373 78.7123 22.2373 80.2385C22.2373 81.7647 21.0745 82.9275 19.5483 82.9275ZM19.5483 78.131C18.3129 78.131 17.3681 79.0757 17.3681 80.3112C17.3681 81.5467 18.3129 82.4914 19.5483 82.4914C20.7838 82.4914 21.7286 81.5467 21.7286 80.3112C21.7286 79.0757 20.7838 78.131 19.5483 78.131Z" fill="white"/>
<path d="M22.2353 75.5146H21.7266V83.0001H22.2353V75.5146Z" fill="white"/>
<path d="M10.8296 82.9275C9.37609 82.9275 8.14062 81.7647 8.14062 80.2385C8.14062 78.7123 9.30342 77.5496 10.8296 77.5496C12.3557 77.5496 13.5185 78.7123 13.5185 80.2385C13.5185 81.7647 12.3557 82.9275 10.8296 82.9275ZM10.8296 78.131C9.59411 78.131 8.64935 79.0757 8.64935 80.3112C8.64935 81.5467 9.59411 82.4914 10.8296 82.4914C12.065 82.4914 13.0098 81.5467 13.0098 80.3112C13.0098 79.0757 12.065 78.131 10.8296 78.131Z" fill="white"/>
<path d="M13.5165 77.6223H13.0078V82.9275H13.5165V77.6223Z" fill="white"/>
<path d="M15.2587 77.6221H14.75V82.9273H15.2587V77.6221Z" fill="white"/>
<path d="M15.2587 80.0203H14.75V79.7296C14.75 78.5668 15.6948 77.6221 16.8576 77.6221H17.0756V78.1308H16.8576C15.9128 78.1308 15.186 78.8575 15.186 79.8023V80.093L15.2587 80.0203Z" fill="white"/>
<defs>
<radialGradient id="paint0_radial_14796_41660" cx="0" cy="0" r="1" gradientUnits="userSpaceOnUse" gradientTransform="translate(18.6984 9.62886) scale(34.323 34.1591)">
<stop stop-color="white" stop-opacity="0"/>
<stop offset="1" stop-color="white"/>
</radialGradient>
<linearGradient id="paint1_linear_14796_41660" x1="43.3143" y1="7.51648" x2="37.7909" y2="33.9701" gradientUnits="userSpaceOnUse">
<stop offset="0.1" stop-color="white" stop-opacity="0"/>
<stop offset="1" stop-color="white"/>
</linearGradient>
<radialGradient id="paint2_radial_14796_41660" cx="0" cy="0" r="1" gradientUnits="userSpaceOnUse" gradientTransform="translate(44.9141 25.1019) rotate(120.119) scale(34.2001 34.2818)">
<stop stop-color="white" stop-opacity="0"/>
<stop offset="1" stop-color="white"/>
</radialGradient>
<linearGradient id="paint3_linear_14796_41660" x1="34.4648" y1="47.3896" x2="14.328" y2="29.2678" gradientUnits="userSpaceOnUse">
<stop offset="0.1" stop-color="white" stop-opacity="0"/>
<stop offset="1" stop-color="white"/>
</linearGradient>
<radialGradient id="paint4_radial_14796_41660" cx="0" cy="0" r="1" gradientUnits="userSpaceOnUse" gradientTransform="translate(18.0855 39.9398) rotate(-120.119) scale(34.2001 34.2818)">
<stop stop-color="white" stop-opacity="0"/>
<stop offset="1" stop-color="white"/>
</radialGradient>
<linearGradient id="paint5_linear_14796_41660" x1="3.93577" y1="19.7783" x2="29.7091" y2="11.2882" gradientUnits="userSpaceOnUse">
<stop offset="0.1" stop-color="white" stop-opacity="0"/>
<stop offset="1" stop-color="white"/>
</linearGradient>
<clipPath id="clip0_14796_41660">
<rect width="50" height="50" fill="white"/>
</clipPath>
</defs>
</svg>
