<svg width="108" height="104" viewBox="0 0 108 104" fill="none" xmlns="http://www.w3.org/2000/svg">
<ellipse cx="52.8697" cy="52" rx="51.9322" ry="52" fill="#42474B"/>
<rect width="76.9768" height="59.648" rx="4" transform="matrix(0.989787 -0.142555 0.142191 0.989839 0.9375 18.8862)" fill="#32373B"/>
<rect width="18.7422" height="3.08048" rx="1.54024" transform="matrix(0.989787 -0.142555 0.142191 0.989839 20.1484 67.8534)" fill="#24C8B0"/>
<rect width="18.7422" height="3.19501" rx="1.5975" transform="matrix(0.989787 -0.142555 0.142191 0.989839 56.5625 62.4916)" fill="#42474B"/>
<rect width="10.7098" height="4.02121" rx="2.01061" transform="matrix(0.989787 -0.142555 0.142191 0.989839 63.6406 55.2225)" fill="#5B5F63"/>
<rect width="10.7098" height="4.02121" rx="2.01061" transform="matrix(0.989787 -0.142555 0.142191 0.989839 27.1953 60.4701)" fill="#5B5F63"/>
<ellipse cx="91.2508" cy="70.0866" rx="15.8055" ry="15.8261" fill="#5B5F63"/>
<path d="M87.7575 69.4851L91.2502 65.9878L94.743 69.4851C94.8917 69.634 95.0823 69.7044 95.271 69.7044C95.4597 69.7044 95.6502 69.634 95.7989 69.4851C96.0885 69.1952 96.0885 68.7187 95.7989 68.4287L91.7782 64.4028C91.4884 64.1126 91.012 64.1126 90.7223 64.4028L86.7016 68.4287C86.412 68.7187 86.412 69.1952 86.7016 69.4851C86.9913 69.7752 87.4677 69.7752 87.7575 69.4851Z" fill="#32373B" stroke="#32373B" stroke-width="0.5"/>
<path d="M90.5078 76.2048C90.5078 76.6145 90.8446 76.9523 91.2546 76.9523C91.6624 76.9523 92.0014 76.6233 92.0014 76.2048V65.0422C92.0014 64.6325 91.6646 64.2948 91.2546 64.2948C90.8446 64.2948 90.5078 64.6325 90.5078 65.0422V76.2048Z" fill="#32373B" stroke="#32373B" stroke-width="0.5"/>
<ellipse cx="64.1606" cy="87.0439" rx="10.1606" ry="10.1739" fill="#32373B"/>
<path d="M63.7555 91.7573C63.8695 91.8715 64.0157 91.9254 64.1603 91.9254C64.305 91.9254 64.4511 91.8715 64.5651 91.7573L67.5807 88.7379C67.8027 88.5155 67.8027 88.1503 67.5807 87.9279C67.3585 87.7054 66.9932 87.7054 66.771 87.9279L64.1603 90.542L61.5496 87.9279C61.5496 87.9279 61.5496 87.9279 61.5496 87.9279C61.3274 87.7054 60.9622 87.7054 60.74 87.9279C60.5179 88.1503 60.5179 88.5155 60.74 88.7379L63.7555 91.7573Z" fill="#24C8B0" stroke="#24C8B0" stroke-width="0.4"/>
<path d="M63.5891 91.2675C63.5891 91.5816 63.8473 91.8406 64.1617 91.8406C64.476 91.8406 64.7343 91.5816 64.7343 91.2675V82.8955C64.7343 82.5814 64.476 82.3225 64.1617 82.3225C63.8473 82.3225 63.5891 82.5814 63.5891 82.8955V91.2675Z" fill="#24C8B0" stroke="#24C8B0" stroke-width="0.4"/>
<path d="M45.6295 49.4222C45.5892 50.8796 44.3678 52.0485 42.9331 51.7893C41.4737 51.5258 40.0501 51.0769 38.6974 50.4512C36.5436 49.4548 34.6145 48.0305 33.0272 46.2648C31.4399 44.4991 30.2275 42.4288 29.4636 40.1796C28.9832 38.765 28.6864 37.2981 28.578 35.8151C28.4718 34.3627 29.7606 33.272 31.2124 33.3846C32.6639 33.4972 33.72 34.7759 33.9197 36.2179C34.026 36.9853 34.205 37.7427 34.4553 38.4799C34.9892 40.0518 35.8365 41.4987 36.9459 42.7328C38.0553 43.9668 39.4035 44.9622 40.9088 45.6586C41.6125 45.9841 42.3438 46.2412 43.0923 46.4273C44.5071 46.779 45.6698 47.965 45.6295 49.4222Z" fill="#7C7F82"/>
<path d="M31.4147 32.3567C29.9273 32.1352 28.8804 30.7398 29.3286 29.3043C30.0397 27.0262 31.2108 24.908 32.7798 23.0859C34.9433 20.5733 37.7743 18.7268 40.9441 17.7611C44.1138 16.7953 47.4922 16.7498 50.6867 17.6299C53.8812 18.5101 56.7608 20.2797 58.991 22.7332C61.2212 25.1867 62.7104 28.2234 63.2857 31.4906C63.8609 34.7577 63.4986 38.1213 62.2409 41.1906C60.9831 44.2598 58.8815 46.9087 56.1802 48.8297C54.2235 50.2211 52.0103 51.1892 49.6814 51.6848C48.2081 51.9983 46.9148 50.8231 46.8341 49.3189C46.7535 47.815 47.924 46.5603 49.3714 46.1441C50.674 45.7694 51.9105 45.1759 53.0261 44.3826C54.8871 43.0593 56.3349 41.2344 57.2013 39.12C58.0678 37.0056 58.3174 34.6884 57.9211 32.4376C57.5248 30.1868 56.4989 28.0948 54.9625 26.4046C53.4261 24.7143 51.4423 23.4952 49.2416 22.8889C47.0409 22.2826 44.7135 22.3139 42.5298 22.9792C40.3462 23.6446 38.3958 24.9166 36.9054 26.6476C36.0108 27.6865 35.3039 28.8652 34.8091 30.1305C34.261 31.5318 32.903 32.5783 31.4147 32.3567Z" fill="#42474B"/>
</svg>
