<svg width="70" height="71" viewBox="0 0 70 71" fill="none" xmlns="http://www.w3.org/2000/svg">
<path fill-rule="evenodd" clip-rule="evenodd" d="M69.4994 44.6805L54.2809 26.0093C53.5506 25.1305 52.4833 24.5984 51.3593 24.5984H18.6388C17.5154 24.5984 16.4481 25.1305 15.7178 26.0093L0.5 44.6805V54.4349H69.5V44.6805H69.4994Z" fill="#32373B"/>
<path fill-rule="evenodd" clip-rule="evenodd" d="M13.3959 0.5H56.6075C57.2823 0.5 57.9295 0.767228 58.4067 1.2429C58.8838 1.71857 59.1519 2.36371 59.1519 3.03641V62.2261C59.1519 62.8988 58.8838 63.5439 58.4067 64.0196C57.9295 64.4953 57.2823 64.7625 56.6075 64.7625H13.3959C12.7211 64.7625 12.074 64.4953 11.5968 64.0196C11.1196 63.5439 10.8516 62.8988 10.8516 62.2261V3.03641C10.8516 2.36371 11.1196 1.71857 11.5968 1.2429C12.074 0.767228 12.7211 0.5 13.3959 0.5V0.5Z" fill="#5B5F63"/>
<path fill-rule="evenodd" clip-rule="evenodd" d="M19.0223 6.81134H50.9777C51.3151 6.81134 51.6387 6.94495 51.8772 7.18279C52.1158 7.42062 52.2498 7.7432 52.2498 8.07955V23.9049C52.2498 24.2412 52.1158 24.5638 51.8772 24.8016C51.6387 25.0394 51.3151 25.1731 50.9777 25.1731H19.0223C18.6849 25.1731 18.3614 25.0394 18.1228 24.8016C17.8842 24.5638 17.7502 24.2412 17.7502 23.9049V8.07955C17.7502 7.7432 17.8842 7.42062 18.1228 7.18279C18.3614 6.94495 18.6849 6.81134 19.0223 6.81134ZM19.189 32.0575H50.811C51.1926 32.0575 51.5586 32.2086 51.8284 32.4776C52.0982 32.7466 52.2498 33.1114 52.2498 33.4918C52.2498 33.8723 52.0982 34.2371 51.8284 34.5061C51.5586 34.7751 51.1926 34.9262 50.811 34.9262H19.189C18.8074 34.9262 18.4414 34.7751 18.1716 34.5061C17.9018 34.2371 17.7502 33.8723 17.7502 33.4918C17.7502 33.1114 17.9018 32.7466 18.1716 32.4776C18.4414 32.2086 18.8074 32.0575 19.189 32.0575ZM19.189 39.5165H50.811C51.1927 39.5165 51.5588 39.6676 51.8286 39.9367C52.0985 40.2057 52.2502 40.5706 52.2502 40.9511C52.2502 41.3316 52.0985 41.6965 51.8286 41.9656C51.5588 42.2346 51.1927 42.3858 50.811 42.3858H19.189C18.8073 42.3858 18.4413 42.2346 18.1714 41.9656C17.9015 41.6965 17.7498 41.3316 17.7498 40.9511C17.7498 40.5706 17.9015 40.2057 18.1714 39.9367C18.4413 39.6676 18.8073 39.5165 19.189 39.5165ZM69.3594 67.1012C68.8665 69.0485 67.135 70.5 65.0754 70.5H4.92465C2.86499 70.5 1.13355 69.0479 0.641213 67.1012C0.547312 66.7301 0.49988 66.3489 0.5 65.9662V44.6812H17.2407C19.0898 44.6812 20.5801 46.2335 20.5801 48.1181V48.1434C20.5801 50.0273 22.0877 51.5486 23.9368 51.5486H46.0632C47.9123 51.5486 49.4199 50.0134 49.4199 48.1288V48.1212C49.4199 46.2367 50.9102 44.6806 52.7594 44.6806H69.5V65.9668C69.5 66.358 69.451 66.7379 69.3594 67.1012Z" fill="#42474B"/>
</svg>
