<svg width="32" height="32" viewBox="0 0 32 32" fill="none" xmlns="http://www.w3.org/2000/svg">
<g clip-path="url(#clip0_14784_123244)">
<path fill-rule="evenodd" clip-rule="evenodd" d="M4.19587 10.2771C4.6435 10.2078 5.21652 9.9101 5.70241 9.74851C6.25016 9.56636 6.72554 9.4054 7.31404 9.23975C8.15926 9.00184 9.85861 8.54326 10.7383 8.5118C13.1784 7.92342 17.5522 8.05303 19.9405 8.32641C21.034 8.45159 23.1386 8.82971 24.099 9.11629L27.8899 10.2725C27.9372 9.70638 29.216 6.13944 29.216 5.07365C28.0676 4.52448 24.2855 3.5928 23.1926 3.41091C21.4591 3.12237 19.1246 2.86313 16.8408 2.78262H14.137C13.4911 2.8094 12.8737 2.858 12.3034 2.93273C9.07418 3.35578 7.53384 3.47905 4.22916 4.57821C3.76969 4.73105 3.15994 4.89258 2.78125 5.07365C2.79876 5.85578 3.90776 9.66089 4.19581 10.2771L4.19587 10.2771Z" fill="#E6000B"/>
<path fill-rule="evenodd" clip-rule="evenodd" d="M9.67701 14.0601L9.29024 14.2048C9.0614 14.2673 8.99959 14.2789 8.80328 14.3361L7.05065 14.8803C6.73689 15.0042 6.41002 15.0782 6.14062 15.207C6.18022 15.6813 8.17219 19.5384 8.52771 19.9734C9.80528 19.5887 12.6971 18.7224 14.0976 18.8241C14.986 18.8073 15.7016 18.6795 16.6619 18.7313C18.2626 18.8174 19.8837 19.0485 21.3653 19.4186C22.1463 19.6137 22.7672 19.8904 23.4691 20.0534C24.0589 18.9425 24.9066 17.5801 25.363 16.4779C25.4646 16.2327 25.5362 16.1106 25.6509 15.8836C25.7811 15.6257 25.8342 15.4363 25.9446 15.207C25.2709 15.0506 23.8473 14.3669 23.2922 14.3696C20.9169 13.8625 19.1461 13.445 16.5731 13.3997C15.3305 13.3777 14.1077 13.4328 12.8812 13.5764C12.1584 13.661 10.1734 14.0976 9.67708 14.0601H9.67701Z" fill="#E6000B"/>
<path fill-rule="evenodd" clip-rule="evenodd" d="M8.53125 19.9734C8.84927 21.1066 12.0054 24.9684 12.8123 26.0081C12.9985 26.2481 13.1263 26.3407 13.3293 26.5502C13.5508 26.7788 13.5907 26.8972 13.812 27.1265C14.2756 27.6065 15.5036 28.9143 15.9578 29.2174C16.339 29.116 17.4822 27.8302 17.8365 27.4771L19.5826 25.5166L18.854 24.7448C17.6931 23.5972 14.369 19.7999 14.1012 18.824C12.7007 18.7224 9.80888 19.5886 8.53131 19.9733L8.53125 19.9734Z" fill="#AB0200"/>
<path fill-rule="evenodd" clip-rule="evenodd" d="M4.19531 10.2771C4.3845 10.5492 4.54516 10.5954 4.79189 10.8234C6.3323 12.2476 8.19518 13.0863 9.67676 14.0602C10.1731 14.0976 12.1581 13.661 12.8809 13.5764C14.1074 13.4328 15.3302 13.3778 16.5728 13.3997C19.1458 13.4451 20.9166 13.8625 23.2919 14.3696C23.0968 14.171 20.2666 13.1857 19.9587 13.066C17.152 11.9741 14.674 10.964 12.114 9.42952C11.747 9.20956 10.9391 8.7824 10.7377 8.51187C9.85805 8.54334 8.1587 9.00191 7.31348 9.23982C6.72499 9.40548 6.24961 9.56643 5.70185 9.74858C5.21597 9.91017 4.64294 10.208 4.19531 10.2771V10.2771Z" fill="#AB0200"/>
</g>
<defs>
<clipPath id="clip0_14784_123244">
<rect width="32" height="32" fill="white"/>
</clipPath>
</defs>
</svg>
